SplineFontDB: 3.0
FontName: HW222
FullName: Courier New Bold
FamilyName: Courier New
Weight: Bold
Copyright: 
Version: 1.0
ItalicAngle: 0
UnderlinePosition: -375
UnderlineWidth: 205
Ascent: 1638
Descent: 410
sfntRevision: 0x00010000
LayerCount: 2
Layer: 0 1 "Back"  1
Layer: 1 1 "Fore"  0
NeedsXUIDChange: 1
XUID: [1021 590 1988622311 10626311]
UseXUID: 1
FSType: 0
OS2Version: 0
OS2_WeightWidthSlopeOnly: 0
OS2_UseTypoMetrics: 1
CreationTime: 657440449
ModificationTime: 1467231382
PfmFamily: 17
TTFWeight: 700
TTFWidth: 5
LineGap: 0
VLineGap: 0
Panose: 2 7 6 9 2 2 5 2 4 4
OS2TypoAscent: 1297
OS2TypoAOffset: 0
OS2TypoDescent: -428
OS2TypoDOffset: 0
OS2TypoLinegap: 0
OS2WinAscent: 1705
OS2WinAOffset: 0
OS2WinDescent: 615
OS2WinDOffset: 0
HheadAscent: 1705
HheadAOffset: 0
HheadDescent: -615
HheadDOffset: 0
OS2SubXSize: 1434
OS2SubYSize: 1331
OS2SubXOff: 0
OS2SubYOff: 285
OS2SupXSize: 1434
OS2SupYSize: 1331
OS2SupXOff: 0
OS2SupYOff: 865
OS2StrikeYSize: 102
OS2StrikeYPos: 530
OS2FamilyClass: 1285
OS2Vendor: 'Mono'
OS2UnicodeRanges: 00000000.00000000.00000000.00000000
MarkAttachClasses: 1
DEI: 91125
TtTable: prep
PUSHB_3
 18
 18
 64
PUSHW_1
 713
PUSHB_3
 36
 51
 159
PUSHW_3
 712
 239
 712
NPUSHB
 74
 2
 32
 33
 1
 159
 5
 239
 5
 2
 159
 4
 239
 4
 2
 159
 3
 239
 3
 2
 159
 2
 239
 2
 2
 191
 6
 191
 7
 2
 31
 6
 63
 6
 95
 6
 111
 6
 143
 6
 5
 31
 7
 63
 7
 95
 7
 111
 7
 143
 7
 5
 63
 2
 63
 3
 79
 2
 79
 3
 4
 16
 30
 16
 33
 16
 34
 16
 39
 16
 44
 16
 71
 6
 95
NPUSHW
 105
 619
 1
 95
 732
 1
 732
 623
 2048
 31
 128
 731
 1
 32
 729
 1
 48
 729
 64
 729
 2
 96
 729
 112
 729
 2
 128
 729
 144
 729
 2
 160
 729
 176
 729
 2
 192
 729
 1
 32
 729
 128
 729
 2
 16
 729
 64
 729
 2
 144
 729
 208
 729
 224
 729
 3
 16
 729
 144
 729
 2
 729
 620
 2048
 31
 32
 728
 48
 728
 64
 728
 3
 728
 680
 2048
 31
 16
 727
 32
 727
 2
 32
 727
 48
 727
 64
 727
 80
 727
 4
 727
 666
 2048
 31
 168
 726
 184
 726
 216
 726
 3
 726
 619
 1024
 31
 725
PUSHB_3
 52
 15
 31
NPUSHW

StartChar: exclam
Encoding: 33 33 1
Width: 1229
Flags: W
LayerCount: 2
Fore
SplineSet
767 1093 m 2,0,-1
 710 475 l 2,1,2
 706 427 706 427 678 400.5 c 128,-1,3
 650 374 650 374 608 374 c 256,4,5
 566 374 566 374 538 400.5 c 128,-1,6
 510 427 510 427 506 475 c 2,7,-1
 448 1093 l 2,8,9
 444 1140 444 1140 444 1155 c 0,10,11
 444 1233 444 1233 491 1280.5 c 128,-1,12
 538 1328 538 1328 608 1328 c 0,13,14
 677 1328 677 1328 724.5 1280 c 128,-1,15
 772 1232 772 1232 772 1159 c 0,16,17
 772 1144 772 1144 767 1093 c 2,0,-1
734 75 m 256,18,19
 734 31 734 31 701 0.5 c 128,-1,20
 668 -30 668 -30 610 -30 c 256,21,22
 552 -30 552 -30 519 0.5 c 128,-1,23
 486 31 486 31 486 75 c 0,24,25
 486 118 486 118 518.5 148.5 c 128,-1,26
 551 179 551 179 610 179 c 256,27,28
 669 179 669 179 701.5 149 c 128,-1,29
 734 119 734 119 734 75 c 256,18,19
EndSplineSet
EndChar

StartChar: quotedbl
Encoding: 34 34 2
Width: 1229
Flags: W
LayerCount: 2
Fore
SplineSet
264 1237 m 1,0,-1
 528 1237 l 1,1,-1
 463 747 l 2,2,3
 458 709 458 709 441.5 694 c 128,-1,4
 425 679 425 679 399 679 c 0,5,6
 372 679 372 679 356 694 c 128,-1,7
 340 709 340 709 335 746 c 2,8,-1
 264 1237 l 1,0,-1
691 1237 m 1,9,-1
 955 1237 l 1,10,-1
 890 747 l 2,11,12
 885 709 885 709 869 694 c 128,-1,13
 853 679 853 679 826 679 c 256,14,15
 799 679 799 679 783 694 c 128,-1,16
 767 709 767 709 762 746 c 2,17,-1
 691 1237 l 1,9,-1
EndSplineSet
EndChar

StartChar: numbersign
Encoding: 35 35 3
Width: 1229
Flags: W
LayerCount: 2
Fore
SplineSet
917 923 m 1,0,-1
 965 923 l 2,1,2
 1039 923 1039 923 1070.5 894.5 c 128,-1,3
 1102 866 1102 866 1102 820 c 0,4,5
 1102 775 1102 775 1071 746.5 c 128,-1,6
 1040 718 1040 718 966 718 c 2,7,-1
 902 718 l 1,8,-1
 887 494 l 1,9,-1
 923 494 l 2,10,11
 997 494 997 494 1028.5 465.5 c 128,-1,12
 1060 437 1060 437 1060 391 c 0,13,14
 1060 346 1060 346 1029 317.5 c 128,-1,15
 998 289 998 289 924 289 c 2,16,-1
 872 289 l 1,17,-1
 848 -63 l 2,18,19
 847 -71 847 -71 833 -134 c 1,20,21
 823 -158 823 -158 797 -175 c 128,-1,22
 771 -192 771 -192 742 -192 c 0,23,24
 701 -192 701 -192 671.5 -161.5 c 128,-1,25
 642 -131 642 -131 642 -85 c 0,26,27
 642 -77 642 -77 644 -47 c 2,28,-1
 668 289 l 1,29,-1
 515 289 l 1,30,-1
 491 -62 l 2,31,32
 487 -115 487 -115 483 -125 c 0,33,34
 472 -155 472 -155 445.5 -173.5 c 128,-1,35
 419 -192 419 -192 387 -192 c 0,36,37
 343 -192 343 -192 313.5 -162 c 128,-1,38
 284 -132 284 -132 284 -85 c 0,39,40
 284 -74 284 -74 286 -48 c 2,41,-1
 309 289 l 1,42,-1
 259 289 l 2,43,44
 185 289 185 289 153.5 317.5 c 128,-1,45
 122 346 122 346 122 392 c 0,46,47
 122 437 122 437 153.5 465.5 c 128,-1,48
 185 494 185 494 259 494 c 2,49,-1
 324 494 l 1,50,-1
 339 718 l 1,51,-1
 302 718 l 2,52,53
 228 718 228 718 196.5 746.5 c 128,-1,54
 165 775 165 775 165 821 c 0,55,56
 165 866 165 866 196.5 894.5 c 128,-1,57
 228 923 228 923 301 923 c 2,58,-1
 354 923 l 1,59,-1
 378 1275 l 2,60,61
 382 1327 382 1327 387 1340 c 0,62,63
 398 1369 398 1369 424.5 1387 c 128,-1,64
 451 1405 451 1405 483 1405 c 0,65,66
 525 1405 525 1405 555 1375 c 128,-1,67
 585 1345 585 1345 585 1295 c 0,68,69
 585 1283 585 1283 583 1260 c 2,70,-1
 560 923 l 1,71,-1
 712 923 l 1,72,-1
 736 1275 l 2,73,74
 740 1347 740 1347 768.5 1376 c 128,-1,75
 797 1405 797 1405 841 1405 c 0,76,77
 884 1405 884 1405 914 1374.5 c 128,-1,78
 944 1344 944 1344 944 1300 c 0,79,80
 944 1290 944 1290 943 1283 c 2,81,-1
 940 1260 l 1,82,-1
 917 923 l 1,0,-1
697 718 m 1,83,-1
 545 718 l 1,84,-1
 530 494 l 1,85,-1
 682 494 l 1,86,-1
 697 718 l 1,83,-1
EndSplineSet
EndChar

StartChar: dollar
Encoding: 36 36 4
Width: 1229
Flags: W
LayerCount: 2
Fore
SplineSet
717 1231 m 1,0,1
 788 1222 788 1222 856 1191 c 1,2,3
 872 1200 872 1200 886.5 1204.5 c 128,-1,4
 901 1209 901 1209 915 1209 c 0,5,6
 961 1209 961 1209 989.5 1177.5 c 128,-1,7
 1018 1146 1018 1146 1018 1072 c 2,8,-1
 1018 1006 l 2,9,10
 1018 932 1018 932 989.5 900.5 c 128,-1,11
 961 869 961 869 916 869 c 0,12,13
 875 869 875 869 846.5 896 c 128,-1,14
 818 923 818 923 813 975 c 1,15,16
 741 1032 741 1032 633 1032 c 0,17,18
 520 1032 520 1032 467.5 991.5 c 128,-1,19
 415 951 415 951 415 902 c 0,20,21
 415 864 415 864 447 834 c 256,22,23
 479 804 479 804 581 783 c 2,24,-1
 717 754 l 1,25,26
 889 719 889 719 964 649 c 1,27,28
 1062 560 1062 560 1062 414 c 0,29,30
 1062 286 1062 286 972.5 186.5 c 128,-1,31
 883 87 883 87 717 55 c 1,32,-1
 717 -119 l 2,33,34
 717 -193 717 -193 688.5 -224.5 c 128,-1,35
 660 -256 660 -256 614 -256 c 0,36,37
 569 -256 569 -256 540.5 -224.5 c 128,-1,38
 512 -193 512 -193 512 -119 c 2,39,-1
 512 55 l 1,40,41
 432 72 432 72 352 108 c 1,42,43
 309 72 309 72 272 72 c 0,44,45
 223 72 223 72 194.5 103 c 128,-1,46
 166 134 166 134 166 208 c 2,47,-1
 166 337 l 2,48,49
 166 411 166 411 194.5 442.5 c 128,-1,50
 223 474 223 474 269 474 c 0,51,52
 306 474 306 474 331 454 c 128,-1,53
 356 434 356 434 367 392.5 c 128,-1,54
 378 351 378 351 398 330 c 0,55,56
 428 298 428 298 489.5 276.5 c 128,-1,57
 551 255 551 255 616 255 c 0,58,59
 730 255 730 255 806 314 c 0,60,61
 857 353 857 353 857 415 c 0,62,63
 857 466 857 466 823 499 c 0,64,65
 789 531 789 531 680 553 c 2,66,-1
 526 584 l 2,67,68
 363 616 363 616 287 701 c 256,69,70
 211 786 211 786 211 905 c 0,71,72
 211 1023 211 1023 293 1115 c 128,-1,73
 375 1207 375 1207 512 1231 c 1,74,-1
 512 1287 l 2,75,76
 512 1360 512 1360 540.5 1391.5 c 128,-1,77
 569 1423 569 1423 615 1423 c 0,78,79
 660 1423 660 1423 688.5 1391.5 c 128,-1,80
 717 1360 717 1360 717 1287 c 2,81,-1
 717 1231 l 1,0,1
EndSplineSet
EndChar

StartChar: percent
Encoding: 37 37 5
Width: 1229
Flags: W
LayerCount: 2
Fore
SplineSet
772 995 m 0,0,1
 772 875 772 875 687.5 790.5 c 128,-1,2
 603 706 603 706 483 706 c 256,3,4
 363 706 363 706 278 790.5 c 128,-1,5
 193 875 193 875 193 995 c 256,6,7
 193 1115 193 1115 278 1200 c 128,-1,8
 363 1285 363 1285 483 1285 c 256,9,10
 603 1285 603 1285 687.5 1200.5 c 128,-1,11
 772 1116 772 1116 772 995 c 0,0,1
646 995 m 0,12,13
 646 1063 646 1063 598 1110.5 c 128,-1,14
 550 1158 550 1158 483 1158 c 0,15,16
 415 1158 415 1158 367.5 1110.5 c 128,-1,17
 320 1063 320 1063 320 995 c 0,18,19
 320 928 320 928 368 880 c 128,-1,20
 416 832 416 832 483 832 c 256,21,22
 550 832 550 832 598 880 c 128,-1,23
 646 928 646 928 646 995 c 0,12,13
1014 690 m 2,24,-1
 258 445 l 2,25,26
 230 436 230 436 217 436 c 0,27,28
 194 436 194 436 176 455 c 128,-1,29
 158 474 158 474 158 503 c 0,30,31
 158 524 158 524 172 541 c 0,32,33
 182 554 182 554 219 566 c 2,34,-1
 975 811 l 2,35,36
 1003 820 1003 820 1016 820 c 0,37,38
 1040 820 1040 820 1057.5 800.5 c 128,-1,39
 1075 781 1075 781 1075 754 c 0,40,41
 1075 732 1075 732 1061 715 c 0,42,43
 1051 702 1051 702 1014 690 c 2,24,-1
1032 259 m 0,44,45
 1032 139 1032 139 947 54.5 c 128,-1,46
 862 -30 862 -30 742 -30 c 256,47,48
 622 -30 622 -30 537 55 c 128,-1,49
 452 140 452 140 452 259 c 0,50,51
 452 379 452 379 537 464 c 128,-1,52
 622 549 622 549 742 549 c 256,53,54
 862 549 862 549 947 464.5 c 128,-1,55
 1032 380 1032 380 1032 259 c 0,44,45
905 259 m 0,56,57
 905 327 905 327 857 374.5 c 128,-1,58
 809 422 809 422 742 422 c 256,59,60
 675 422 675 422 627 374.5 c 128,-1,61
 579 327 579 327 579 259 c 0,62,63
 579 192 579 192 627 144.5 c 128,-1,64
 675 97 675 97 742 97 c 256,65,66
 809 97 809 97 857 144.5 c 128,-1,67
 905 192 905 192 905 259 c 0,56,57
EndSplineSet
EndChar

StartChar: ampersand
Encoding: 38 38 6
Width: 1229
Flags: W
LayerCount: 2
Fore
SplineSet
828 407 m 1,0,-1
 878 581 l 1,1,-1
 983 581 l 2,2,3
 1047 581 1047 581 1071 566 c 0,4,5
 1119 535 1119 535 1119 477 c 0,6,7
 1119 435 1119 435 1093.5 406.5 c 128,-1,8
 1068 378 1068 378 1032 376 c 1,9,10
 1007 269 1007 269 969 205 c 1,11,12
 1050 205 1050 205 1073 190 c 0,13,14
 1122 160 1122 160 1122 102 c 0,15,16
 1122 57 1122 57 1090.5 28.5 c 128,-1,17
 1059 0 1059 0 985 0 c 2,18,-1
 863 0 l 1,19,-1
 839 32 l 1,20,21
 794 0 794 0 753 -12 c 0,22,23
 692 -30 692 -30 605 -30 c 0,24,25
 424 -30 424 -30 324.5 62.5 c 128,-1,26
 225 155 225 155 225 297 c 0,27,28
 225 394 225 394 274.5 482.5 c 128,-1,29
 324 571 324 571 426 631 c 1,30,31
 382 704 382 704 368.5 744.5 c 128,-1,32
 355 785 355 785 355 831 c 0,33,34
 355 955 355 955 449 1048.5 c 128,-1,35
 543 1142 543 1142 672 1142 c 0,36,37
 706 1142 706 1142 742 1133.5 c 128,-1,38
 778 1125 778 1125 816 1107 c 1,39,40
 852 1123 852 1123 870 1123 c 0,41,42
 912 1123 912 1123 942 1092.5 c 128,-1,43
 972 1062 972 1062 972 1020 c 0,44,45
 972 985 972 985 955.5 962.5 c 128,-1,46
 939 940 939 940 889 913 c 2,47,-1
 803 867 l 1,48,49
 754 911 754 911 724 926 c 0,50,51
 701 937 701 937 671 937 c 0,52,53
 624 937 624 937 592 905.5 c 128,-1,54
 560 874 560 874 560 833 c 0,55,56
 560 798 560 798 619 712 c 2,57,-1
 828 407 l 1,0,-1
544 459 m 1,58,59
 430 406 430 406 430 298 c 0,60,61
 430 241 430 241 469 208 c 128,-1,62
 508 175 508 175 605 175 c 0,63,64
 667 175 667 175 719 205 c 1,65,-1
 544 459 l 1,58,59
EndSplineSet
EndChar

StartChar: quotesingle
Encoding: 39 39 7
Width: 1229
Flags: W
LayerCount: 2
Fore
SplineSet
481 1252 m 1,0,-1
 745 1252 l 1,1,-1
 680 724 l 2,2,3
 675 682 675 682 658.5 666.5 c 128,-1,4
 642 651 642 651 615 651 c 0,5,6
 590 651 590 651 573.5 666.5 c 128,-1,7
 557 682 557 682 552 723 c 2,8,-1
 481 1252 l 1,0,-1
EndSplineSet
EndChar

StartChar: parenleft
Encoding: 40 40 8
Width: 1229
Flags: W
LayerCount: 2
Fore
SplineSet
541 498 m 0,0,1
 541 673 541 673 599 852 c 0,2,3
 642 984 642 984 732 1146 c 0,4,5
 797 1262 797 1262 828 1288.5 c 128,-1,6
 859 1315 859 1315 897 1315 c 0,7,8
 941 1315 941 1315 971 1285 c 128,-1,9
 1001 1255 1001 1255 1001 1213 c 0,10,11
 1001 1184 1001 1184 977 1144 c 0,12,13
 869 967 869 967 819.5 812 c 128,-1,14
 770 657 770 657 770 498 c 0,15,16
 770 338 770 338 819.5 183 c 128,-1,17
 869 28 869 28 977 -149 c 0,18,19
 1001 -188 1001 -188 1001 -218 c 0,20,21
 1001 -260 1001 -260 971 -290 c 128,-1,22
 941 -320 941 -320 897 -320 c 0,23,24
 860 -320 860 -320 832 -296 c 0,25,26
 792 -261 792 -261 726 -139 c 0,27,28
 631 38 631 38 596 153 c 0,29,30
 541 329 541 329 541 498 c 0,0,1
EndSplineSet
EndChar

StartChar: parenright
Encoding: 41 41 9
Width: 1229
Flags: W
LayerCount: 2
Fore
SplineSet
702 498 m 0,0,1
 702 323 702 323 644 143 c 0,2,3
 601 11 601 11 511 -150 c 0,4,5
 446 -266 446 -266 415 -293 c 128,-1,6
 384 -320 384 -320 346 -320 c 0,7,8
 302 -320 302 -320 272 -290 c 128,-1,9
 242 -260 242 -260 242 -218 c 0,10,11
 242 -188 242 -188 266 -149 c 0,12,13
 374 28 374 28 423.5 183 c 128,-1,14
 473 338 473 338 473 498 c 0,15,16
 473 657 473 657 423.5 812 c 128,-1,17
 374 967 374 967 266 1144 c 0,18,19
 242 1184 242 1184 242 1213 c 0,20,21
 242 1255 242 1255 272 1285 c 128,-1,22
 302 1315 302 1315 346 1315 c 0,23,24
 383 1315 383 1315 411 1291 c 0,25,26
 451 1257 451 1257 517 1134 c 0,27,28
 612 957 612 957 647 843 c 0,29,30
 702 666 702 666 702 498 c 0,0,1
EndSplineSet
EndChar

StartChar: asterisk
Encoding: 42 42 10
Width: 1229
Flags: W
LayerCount: 2
Fore
SplineSet
447 776 m 1,0,-1
 270 833 l 2,1,2
 207 853 207 853 190 876 c 1,3,4
 166 905 166 905 166 941 c 0,5,6
 166 983 166 983 195.5 1013.5 c 128,-1,7
 225 1044 225 1044 262 1044 c 0,8,9
 286 1044 286 1044 333 1028 c 2,10,-1
 510 971 l 1,11,-1
 510 1157 l 2,12,13
 510 1231 510 1231 538.5 1262.5 c 128,-1,14
 567 1294 567 1294 613 1294 c 256,15,16
 659 1294 659 1294 687 1262.5 c 128,-1,17
 715 1231 715 1231 715 1157 c 2,18,-1
 715 971 l 1,19,-1
 892 1028 l 2,20,21
 940 1044 940 1044 962 1044 c 0,22,23
 1000 1044 1000 1044 1029.5 1014 c 128,-1,24
 1059 984 1059 984 1059 942 c 0,25,26
 1059 905 1059 905 1038.5 879.5 c 128,-1,27
 1018 854 1018 854 956 833 c 2,28,-1
 779 776 l 1,29,-1
 888 625 l 2,30,31
 928 570 928 570 928 538 c 0,32,33
 928 495 928 495 898 465 c 128,-1,34
 868 435 868 435 826 435 c 0,35,36
 795 435 795 435 774.5 448 c 128,-1,37
 754 461 754 461 722 505 c 2,38,-1
 613 655 l 1,39,-1
 503 505 l 1,40,41
 472 461 472 461 451 447.5 c 128,-1,42
 430 434 430 434 400 434 c 0,43,44
 358 434 358 434 327.5 464.5 c 128,-1,45
 297 495 297 495 297 539 c 0,46,47
 297 570 297 570 337 625 c 2,48,-1
 447 776 l 1,0,-1
EndSplineSet
EndChar

StartChar: plus
Encoding: 43 43 11
Width: 1229
Flags: W
LayerCount: 2
Fore
SplineSet
717 480 m 1,0,-1
 717 137 l 2,1,2
 717 63 717 63 689 31.5 c 128,-1,3
 661 0 661 0 615 0 c 256,4,5
 569 0 569 0 540.5 31.5 c 128,-1,6
 512 63 512 63 512 137 c 2,7,-1
 512 480 l 1,8,-1
 219 480 l 2,9,10
 145 480 145 480 113.5 508.5 c 128,-1,11
 82 537 82 537 82 583 c 256,12,13
 82 629 82 629 113.5 657.5 c 128,-1,14
 145 686 145 686 219 685 c 1,15,-1
 512 685 l 1,16,-1
 512 1027 l 2,17,18
 512 1100 512 1100 540.5 1132 c 128,-1,19
 569 1164 569 1164 615 1164 c 256,20,21
 661 1164 661 1164 689.5 1132.5 c 128,-1,22
 718 1101 718 1101 718 1027 c 2,23,-1
 717 685 l 1,24,-1
 1010 685 l 2,25,26
 1084 685 1084 685 1115.5 657 c 128,-1,27
 1147 629 1147 629 1147 583 c 256,28,29
 1147 537 1147 537 1115.5 508.5 c 128,-1,30
 1084 480 1084 480 1010 480 c 2,31,-1
 717 480 l 1,0,-1
EndSplineSet
EndChar

StartChar: comma
Encoding: 44 44 12
Width: 1229
Flags: W
LayerCount: 2
Fore
SplineSet
566 276 m 1,0,-1
 840 276 l 1,1,-1
 545 -280 l 2,2,3
 519 -329 519 -329 480 -329 c 0,4,5
 454 -329 454 -329 435.5 -312 c 128,-1,6
 417 -295 417 -295 417 -274 c 0,7,8
 417 -259 417 -259 424 -233 c 2,9,-1
 566 276 l 1,0,-1
EndSplineSet
EndChar

StartChar: period
Encoding: 46 46 13
Width: 1229
Flags: W
LayerCount: 2
Fore
SplineSet
771 103 m 256,0,1
 771 45 771 45 730 6 c 128,-1,2
 689 -33 689 -33 617 -33 c 256,3,4
 545 -33 545 -33 504 6 c 128,-1,5
 463 45 463 45 463 103 c 256,6,7
 463 161 463 161 504 200 c 128,-1,8
 545 239 545 239 617 239 c 256,9,10
 689 239 689 239 730 200 c 128,-1,11
 771 161 771 161 771 103 c 256,0,1
EndSplineSet
EndChar

StartChar: slash
Encoding: 47 47 14
Width: 1229
Flags: W
LayerCount: 2
Fore
SplineSet
1037 1270 m 6,0,-1
 380 -146 l 6,1,2
 355 -199 355 -199 335 -215 c 4,3,4
 309 -236 309 -236 272 -236 c 4,5,6
 230 -236 230 -236 199.5 -206 c 132,-1,7
 169 -176 169 -176 169 -138 c 4,8,9
 169 -111 169 -111 193 -59 c 6,10,-1
 852 1356 l 6,11,12
 877 1409 877 1409 896 1425 c 4,13,14
 923 1446 923 1446 959 1446 c 4,15,16
 1001 1446 1001 1446 1031 1416.5 c 132,-1,17
 1061 1387 1061 1387 1061 1349 c 4,18,19
 1061 1322 1061 1322 1037 1270 c 6,0,-1
EndSplineSet
EndChar

StartChar: zero
Encoding: 48 48 15
Width: 1229
Flags: W
LayerCount: 2
Fore
SplineSet
1062 761 m 2,0,-1
 1062 536 l 2,1,2
 1062 336 1062 336 946.5 153 c 128,-1,3
 831 -30 831 -30 616 -30 c 0,4,5
 492 -30 492 -30 406.5 24.5 c 128,-1,6
 321 79 321 79 244.5 225.5 c 128,-1,7
 168 372 168 372 168 536 c 2,8,-1
 168 761 l 2,9,10
 168 960 168 960 283 1143.5 c 128,-1,11
 398 1327 398 1327 613 1327 c 0,12,13
 736 1327 736 1327 821.5 1273 c 128,-1,14
 907 1219 907 1219 984.5 1072.5 c 128,-1,15
 1062 926 1062 926 1062 761 c 2,0,-1
856 761 m 2,16,17
 856 928 856 928 763 1053 c 1,18,19
 710 1122 710 1122 614 1122 c 0,20,21
 521 1122 521 1122 462 1046 c 0,22,23
 373 931 373 931 373 761 c 2,24,-1
 373 536 l 2,25,26
 373 368 373 368 467 244 c 0,27,28
 519 175 519 175 616 175 c 0,29,30
 708 175 708 175 767 251 c 0,31,32
 856 366 856 366 856 536 c 2,33,-1
 856 761 l 2,16,17
EndSplineSet
EndChar

StartChar: one
Encoding: 49 49 16
Width: 1229
Flags: W
LayerCount: 2
Fore
SplineSet
719 1327 m 1,0,-1
 719 205 l 1,1,-1
 926 205 l 2,2,3
 1000 205 1000 205 1031.5 176.5 c 128,-1,4
 1063 148 1063 148 1063 102 c 0,5,6
 1063 57 1063 57 1031.5 28.5 c 128,-1,7
 1000 0 1000 0 926 0 c 2,8,-1
 307 0 l 2,9,10
 233 0 233 0 201.5 28.5 c 128,-1,11
 170 57 170 57 170 103 c 0,12,13
 170 148 170 148 201.5 176.5 c 128,-1,14
 233 205 233 205 307 205 c 2,15,-1
 514 205 l 1,16,-1
 514 1060 l 1,17,-1
 331 1012 l 2,18,19
 287 1000 287 1000 265 1000 c 0,20,21
 226 1000 226 1000 197.5 1031 c 128,-1,22
 169 1062 169 1062 169 1107 c 0,23,24
 169 1148 169 1148 190 1171.5 c 128,-1,25
 211 1195 211 1195 278 1213 c 2,26,-1
 719 1327 l 1,0,-1
EndSplineSet
EndChar

StartChar: two
Encoding: 50 50 17
Width: 1229
Flags: W
LayerCount: 2
Fore
SplineSet
423 205 m 1,0,-1
 872 205 l 1,1,2
 909 235 909 235 942 235 c 0,3,4
 989 235 989 235 1016.5 204 c 128,-1,5
 1044 173 1044 173 1044 98 c 2,6,-1
 1044 0 l 1,7,-1
 110 0 l 1,8,-1
 110 217 l 1,9,10
 664 674 664 674 779 805 c 0,11,12
 837 872 837 872 837 932 c 0,13,14
 837 1007 837 1007 771.5 1064.5 c 128,-1,15
 706 1122 706 1122 597 1122 c 0,16,17
 487 1122 487 1122 414 1058 c 0,18,19
 376 1024 376 1024 353 957 c 0,20,21
 339 915 339 915 314.5 897 c 128,-1,22
 290 879 290 879 254 879 c 0,23,24
 212 879 212 879 181.5 909 c 128,-1,25
 151 939 151 939 151 979 c 0,26,27
 151 1039 151 1039 206.5 1129 c 128,-1,28
 262 1219 262 1219 368.5 1273 c 128,-1,29
 475 1327 475 1327 600 1327 c 0,30,31
 794 1327 794 1327 918 1209.5 c 128,-1,32
 1042 1092 1042 1092 1042 925 c 0,33,34
 1042 840 1042 840 1006.5 767.5 c 128,-1,35
 971 695 971 695 836 567 c 0,36,37
 730 466 730 466 423 205 c 1,0,-1
EndSplineSet
EndChar

StartChar: three
Encoding: 51 51 18
Width: 1229
Flags: W
LayerCount: 2
Fore
SplineSet
907 685 m 1,0,1
 998 623 998 623 1043 541.5 c 128,-1,2
 1088 460 1088 460 1088 359 c 0,3,4
 1088 250 1088 250 1028.5 157.5 c 128,-1,5
 969 65 969 65 856 17.5 c 128,-1,6
 743 -30 743 -30 560 -30 c 0,7,8
 322 -30 322 -30 202 44 c 0,9,10
 135 86 135 86 135 144 c 0,11,12
 135 188 135 188 164.5 218.5 c 128,-1,13
 194 249 194 249 236 249 c 0,14,15
 265 249 265 249 296 229 c 0,16,17
 340 199 340 199 379 189 c 0,18,19
 439 175 439 175 544 175 c 0,20,21
 723 175 723 175 803 221.5 c 128,-1,22
 883 268 883 268 883 353 c 0,23,24
 883 416 883 416 836.5 474.5 c 128,-1,25
 790 533 790 533 712 565 c 0,26,27
 667 583 667 583 560 590 c 0,28,29
 509 593 509 593 481.5 621.5 c 128,-1,30
 454 650 454 650 454 692 c 0,31,32
 454 736 454 736 484 766 c 128,-1,33
 514 796 514 796 560 796 c 0,34,35
 662 796 662 796 669 797 c 0,36,37
 709 801 709 801 749 823 c 128,-1,38
 789 845 789 845 813.5 883.5 c 128,-1,39
 838 922 838 922 838 963 c 0,40,41
 838 1028 838 1028 780.5 1075.5 c 128,-1,42
 723 1123 723 1123 608 1123 c 0,43,44
 460 1123 460 1123 382 1037 c 0,45,46
 359 1012 359 1012 345 1005 c 0,47,48
 324 994 324 994 298 994 c 0,49,50
 256 994 256 994 226 1024 c 128,-1,51
 196 1054 196 1054 196 1098 c 0,52,53
 196 1167 196 1167 288 1232 c 0,54,55
 422 1327 422 1327 623 1327 c 0,56,57
 813 1327 813 1327 928 1219 c 128,-1,58
 1043 1111 1043 1111 1043 959 c 0,59,60
 1043 880 1043 880 1009 811.5 c 128,-1,61
 975 743 975 743 907 685 c 1,0,1
EndSplineSet
EndChar

StartChar: four
Encoding: 52 52 19
Width: 1229
Flags: W
LayerCount: 2
Fore
SplineSet
915 1294 m 1,0,-1
 915 492 l 1,1,2
 980 492 980 492 1011 463.5 c 128,-1,3
 1042 435 1042 435 1042 390 c 256,4,5
 1042 345 1042 345 1010.5 316 c 128,-1,6
 979 287 979 287 915 287 c 1,7,-1
 915 205 l 1,8,9
 980 205 980 205 1011 176 c 128,-1,10
 1042 147 1042 147 1042 102 c 256,11,12
 1042 57 1042 57 1010.5 28.5 c 128,-1,13
 979 0 979 0 905 0 c 2,14,-1
 630 0 l 2,15,16
 556 0 556 0 524.5 28.5 c 128,-1,17
 493 57 493 57 493 103 c 0,18,19
 493 148 493 148 524.5 176.5 c 128,-1,20
 556 205 556 205 630 205 c 2,21,-1
 710 205 l 1,22,-1
 710 287 l 1,23,-1
 153 287 l 1,24,-1
 153 458 l 1,25,-1
 644 1294 l 1,26,-1
 915 1294 l 1,0,-1
710 492 m 1,27,-1
 710 996 l 1,28,-1
 413 492 l 1,29,-1
 710 492 l 1,27,-1
EndSplineSet
EndChar

StartChar: five
Encoding: 53 53 20
Width: 1229
Flags: W
LayerCount: 2
Fore
SplineSet
442 1089 m 1,0,-1
 442 845 l 1,1,2
 556 881 556 881 649 881 c 0,3,4
 838 881 838 881 963 752 c 128,-1,5
 1088 623 1088 623 1088 419 c 0,6,7
 1088 209 1088 209 961.5 89.5 c 128,-1,8
 835 -30 835 -30 574 -30 c 0,9,10
 344 -30 344 -30 210 57 c 0,11,12
 132 107 132 107 132 172 c 0,13,14
 132 213 132 213 162.5 243.5 c 128,-1,15
 193 274 193 274 235 274 c 0,16,17
 270 274 270 274 311 240.5 c 128,-1,18
 352 207 352 207 397 194 c 0,19,20
 461 175 461 175 561 175 c 0,21,22
 747 175 747 175 815 234.5 c 128,-1,23
 883 294 883 294 883 417 c 0,24,25
 883 538 883 538 817.5 607 c 128,-1,26
 752 676 752 676 649 676 c 0,27,28
 538 676 538 676 396 604 c 0,29,30
 364 587 364 587 340 587 c 0,31,32
 296 587 296 587 266.5 619 c 128,-1,33
 237 651 237 651 237 702 c 2,34,-1
 237 1294 l 1,35,-1
 864 1294 l 2,36,37
 938 1294 938 1294 969.5 1265.5 c 128,-1,38
 1001 1237 1001 1237 1001 1191 c 0,39,40
 1001 1146 1001 1146 969.5 1117.5 c 128,-1,41
 938 1089 938 1089 864 1089 c 2,42,-1
 442 1089 l 1,0,-1
EndSplineSet
EndChar

StartChar: six
Encoding: 54 54 21
Width: 1229
Flags: W
LayerCount: 2
Fore
SplineSet
422 700 m 1,0,1
 496 762 496 762 563 790.5 c 128,-1,2
 630 819 630 819 706 819 c 0,3,4
 867 819 867 819 988 691 c 128,-1,5
 1109 563 1109 563 1109 370 c 0,6,7
 1109 191 1109 191 996.5 80.5 c 128,-1,8
 884 -30 884 -30 691 -30 c 0,9,10
 530 -30 530 -30 426 45 c 128,-1,11
 322 120 322 120 269 276 c 128,-1,12
 216 432 216 432 216 624 c 0,13,14
 216 854 216 854 321 1006.5 c 128,-1,15
 426 1159 426 1159 568 1243 c 128,-1,16
 710 1327 710 1327 868 1327 c 0,17,18
 993 1327 993 1327 1062 1278 c 0,19,20
 1107 1245 1107 1245 1107 1194 c 0,21,22
 1107 1149 1107 1149 1077 1118.5 c 128,-1,23
 1047 1088 1047 1088 1005 1088 c 0,24,25
 981 1088 981 1088 936 1112 c 0,26,27
 909 1126 909 1126 884 1126 c 0,28,29
 786 1126 786 1126 681 1070.5 c 128,-1,30
 576 1015 576 1015 499 900 c 0,31,32
 446 820 446 820 422 700 c 1,0,1
452 383 m 1,33,34
 484 263 484 263 538.5 219 c 128,-1,35
 593 175 593 175 694 175 c 256,36,37
 795 175 795 175 849.5 228 c 128,-1,38
 904 281 904 281 904 372 c 0,39,40
 904 476 904 476 841.5 545 c 128,-1,41
 779 614 779 614 701 614 c 0,42,43
 639 614 639 614 568.5 553 c 128,-1,44
 498 492 498 492 452 383 c 1,33,34
EndSplineSet
EndChar

StartChar: seven
Encoding: 55 55 22
Width: 1229
Flags: W
LayerCount: 2
Fore
SplineSet
826 1089 m 1,0,-1
 357 1089 l 1,1,2
 353 1029 353 1029 326 1002.5 c 128,-1,3
 299 976 299 976 255 976 c 0,4,5
 209 976 209 976 180.5 1007 c 128,-1,6
 152 1038 152 1038 152 1112 c 2,7,-1
 152 1294 l 1,8,-1
 1042 1294 l 1,9,-1
 1042 1089 l 1,10,-1
 710 101 l 2,11,12
 689 39 689 39 663.5 18.5 c 128,-1,13
 638 -2 638 -2 602 -2 c 0,14,15
 559 -2 559 -2 528.5 28 c 128,-1,16
 498 58 498 58 498 97 c 0,17,18
 498 119 498 119 514 167 c 2,19,-1
 826 1089 l 1,0,-1
EndSplineSet
EndChar

StartChar: eight
Encoding: 56 56 23
Width: 1229
Flags: W
LayerCount: 2
Fore
SplineSet
905 655 m 1,0,1
 984 594 984 594 1023.5 516.5 c 128,-1,2
 1063 439 1063 439 1063 346 c 0,3,4
 1063 243 1063 243 1012.5 156.5 c 128,-1,5
 962 70 962 70 854 20 c 128,-1,6
 746 -30 746 -30 614 -30 c 256,7,8
 482 -30 482 -30 376 20 c 128,-1,9
 270 70 270 70 219.5 157 c 128,-1,10
 169 244 169 244 169 346 c 0,11,12
 169 439 169 439 208.5 516.5 c 128,-1,13
 248 594 248 594 327 655 c 1,14,15
 258 719 258 719 223 791 c 128,-1,16
 188 863 188 863 188 943 c 0,17,18
 188 1100 188 1100 308 1213.5 c 128,-1,19
 428 1327 428 1327 616 1327 c 256,20,21
 804 1327 804 1327 924 1213.5 c 128,-1,22
 1044 1100 1044 1100 1044 943 c 0,23,24
 1044 862 1044 862 1009.5 790 c 128,-1,25
 975 718 975 718 905 655 c 1,0,1
834 939 m 0,26,27
 834 1015 834 1015 774.5 1068.5 c 128,-1,28
 715 1122 715 1122 614 1122 c 0,29,30
 512 1122 512 1122 452.5 1068.5 c 128,-1,31
 393 1015 393 1015 393 939 c 0,32,33
 393 862 393 862 452.5 808.5 c 128,-1,34
 512 755 512 755 614 755 c 0,35,36
 715 755 715 755 774.5 808.5 c 128,-1,37
 834 862 834 862 834 939 c 0,26,27
858 336 m 0,38,39
 858 417 858 417 788.5 482.5 c 128,-1,40
 719 548 719 548 616 548 c 256,41,42
 513 548 513 548 443.5 482.5 c 128,-1,43
 374 417 374 417 374 334 c 0,44,45
 374 270 374 270 434 222.5 c 128,-1,46
 494 175 494 175 616 175 c 0,47,48
 739 175 739 175 798.5 222.5 c 128,-1,49
 858 270 858 270 858 336 c 0,38,39
EndSplineSet
EndChar

StartChar: nine
Encoding: 57 57 24
Width: 1229
Flags: W
LayerCount: 2
Fore
SplineSet
903 538 m 1,0,1
 826 472 826 472 762 444.5 c 128,-1,2
 698 417 698 417 627 417 c 0,3,4
 462 417 462 417 338.5 549 c 128,-1,5
 215 681 215 681 215 877 c 0,6,7
 215 1030 215 1030 300 1155 c 0,8,9
 416 1327 416 1327 627 1327 c 0,10,11
 778 1327 778 1327 891 1236.5 c 128,-1,12
 1004 1146 1004 1146 1057 975.5 c 128,-1,13
 1110 805 1110 805 1110 620 c 0,14,15
 1110 306 1110 306 867 116 c 0,16,17
 679 -30 679 -30 455 -30 c 0,18,19
 331 -30 331 -30 263 20 c 0,20,21
 217 53 217 53 217 107 c 0,22,23
 217 151 217 151 246.5 180.5 c 128,-1,24
 276 210 276 210 319 210 c 0,25,26
 343 210 343 210 373 195 c 0,27,28
 412 175 412 175 455 175 c 0,29,30
 610 175 610 175 741 280.5 c 128,-1,31
 872 386 872 386 903 538 c 1,0,1
874 861 m 1,32,33
 841 1003 841 1003 776.5 1062.5 c 128,-1,34
 712 1122 712 1122 629 1122 c 0,35,36
 542 1122 542 1122 481 1055.5 c 128,-1,37
 420 989 420 989 420 879 c 0,38,39
 420 764 420 764 481.5 693 c 128,-1,40
 543 622 543 622 622 622 c 0,41,42
 761 622 761 622 874 861 c 1,32,33
EndSplineSet
EndChar

StartChar: colon
Encoding: 58 58 25
Width: 1229
Flags: W
LayerCount: 2
Fore
SplineSet
769 771 m 256,0,1
 769 713 769 713 728 674 c 128,-1,2
 687 635 687 635 615 635 c 256,3,4
 543 635 543 635 502 674 c 128,-1,5
 461 713 461 713 461 771 c 256,6,7
 461 829 461 829 502 868 c 128,-1,8
 543 907 543 907 615 907 c 256,9,10
 687 907 687 907 728 868 c 128,-1,11
 769 829 769 829 769 771 c 256,0,1
771 100 m 256,12,13
 771 42 771 42 730 3 c 128,-1,14
 689 -36 689 -36 617 -36 c 256,15,16
 545 -36 545 -36 504 3 c 128,-1,17
 463 42 463 42 463 100 c 256,18,19
 463 158 463 158 504 197 c 128,-1,20
 545 236 545 236 617 236 c 256,21,22
 689 236 689 236 730 197 c 128,-1,23
 771 158 771 158 771 100 c 256,12,13
EndSplineSet
EndChar

StartChar: semicolon
Encoding: 59 59 26
Width: 1229
Flags: W
LayerCount: 2
Fore
SplineSet
864 766 m 0,0,1
 864 708 864 708 823 669 c 128,-1,2
 782 630 782 630 710 630 c 0,3,4
 639 630 639 630 598 669.5 c 128,-1,5
 557 709 557 709 557 767 c 0,6,7
 557 824 557 824 597.5 863.5 c 128,-1,8
 638 903 638 903 710 903 c 256,9,10
 782 903 782 903 823 864 c 128,-1,11
 864 825 864 825 864 766 c 0,0,1
547 299 m 1,12,-1
 808 299 l 1,13,-1
 519 -170 l 2,14,15
 491 -217 491 -217 464 -217 c 0,16,17
 439 -217 439 -217 421.5 -202 c 128,-1,18
 404 -187 404 -187 404 -170 c 0,19,20
 404 -157 404 -157 411 -135 c 2,21,-1
 547 299 l 1,12,-1
EndSplineSet
EndChar

StartChar: less
Encoding: 60 60 27
Width: 1229
Flags: W
LayerCount: 2
Fore
SplineSet
400 584 m 1,0,-1
 1064 216 l 2,1,2
 1114 188 1114 188 1130.5 166 c 128,-1,3
 1147 144 1147 144 1147 110 c 0,4,5
 1147 67 1147 67 1116 35.5 c 128,-1,6
 1085 4 1085 4 1044 4 c 0,7,8
 1017 4 1017 4 963 34 c 2,9,-1
 -26 584 l 1,10,-1
 963 1134 l 2,11,12
 1017 1163 1017 1163 1043 1163 c 0,13,14
 1085 1163 1085 1163 1116 1132 c 128,-1,15
 1147 1101 1147 1101 1147 1058 c 0,16,17
 1147 1024 1147 1024 1130.5 1002 c 128,-1,18
 1114 980 1114 980 1064 952 c 2,19,-1
 400 584 l 1,0,-1
EndSplineSet
EndChar

StartChar: equal
Encoding: 61 61 28
Width: 1229
Flags: W
LayerCount: 2
Fore
SplineSet
1054 674 m 2,0,-1
 178 674 l 2,1,2
 104 674 104 674 72.5 702.5 c 128,-1,3
 41 731 41 731 41 777 c 0,4,5
 41 822 41 822 72.5 850.5 c 128,-1,6
 104 879 104 879 178 879 c 2,7,-1
 1054 879 l 2,8,9
 1128 879 1128 879 1159.5 850.5 c 128,-1,10
 1191 822 1191 822 1191 776 c 0,11,12
 1191 731 1191 731 1159.5 702.5 c 128,-1,13
 1128 674 1128 674 1054 674 c 2,0,-1
1054 288 m 6,14,-1
 178 288 l 6,15,16
 104 288 104 288 72.5 316 c 132,-1,17
 41 344 41 344 41 390 c 260,18,19
 41 436 41 436 72.5 464.5 c 132,-1,20
 104 493 104 493 178 493 c 6,21,-1
 1054 493 l 6,22,23
 1128 493 1128 493 1159.5 464.5 c 132,-1,24
 1191 436 1191 436 1191 390 c 260,25,26
 1191 344 1191 344 1159.5 316 c 132,-1,27
 1128 288 1128 288 1054 288 c 6,14,-1
EndSplineSet
EndChar

StartChar: greater
Encoding: 62 62 29
Width: 1229
Flags: W
LayerCount: 2
Fore
SplineSet
831 584 m 1,0,-1
 167 952 l 2,1,2
 117 980 117 980 100.5 1002 c 128,-1,3
 84 1024 84 1024 84 1058 c 0,4,5
 84 1101 84 1101 115 1132 c 128,-1,6
 146 1163 146 1163 188 1163 c 0,7,8
 214 1163 214 1163 268 1134 c 2,9,-1
 1257 584 l 1,10,-1
 268 34 l 2,11,12
 214 4 214 4 188 4 c 0,13,14
 146 4 146 4 115 35 c 128,-1,15
 84 66 84 66 84 110 c 0,16,17
 84 144 84 144 100.5 166 c 128,-1,18
 117 188 117 188 167 216 c 2,19,-1
 831 584 l 1,0,-1
EndSplineSet
EndChar

StartChar: question
Encoding: 63 63 30
Width: 1229
Flags: W
LayerCount: 2
Fore
SplineSet
719 473 m 1,0,1
 713 415 713 415 685.5 388.5 c 128,-1,2
 658 362 658 362 616 362 c 0,3,4
 571 362 571 362 542.5 393.5 c 128,-1,5
 514 425 514 425 514 499 c 2,6,-1
 514 614 l 1,7,8
 757 707 757 707 807 757 c 128,-1,9
 857 807 857 807 857 859 c 0,10,11
 857 932 857 932 798.5 985 c 128,-1,12
 740 1038 740 1038 633 1038 c 0,13,14
 520 1038 520 1038 415 986 c 1,15,-1
 415 956 l 2,16,17
 415 883 415 883 386.5 851.5 c 128,-1,18
 358 820 358 820 312 820 c 0,19,20
 267 820 267 820 238.5 851 c 128,-1,21
 210 882 210 882 210 956 c 2,22,-1
 210 1121 l 1,23,24
 367 1195 367 1195 454 1219 c 128,-1,25
 541 1243 541 1243 634 1243 c 0,26,27
 828 1243 828 1243 945 1131 c 128,-1,28
 1062 1019 1062 1019 1062 850 c 0,29,30
 1062 730 1062 730 991.5 646 c 128,-1,31
 921 562 921 562 719 473 c 1,0,1
762 77 m 256,32,33
 762 30 762 30 728.5 0.5 c 128,-1,34
 695 -29 695 -29 617 -29 c 256,35,36
 539 -29 539 -29 505.5 0.5 c 128,-1,37
 472 30 472 30 472 77 c 256,38,39
 472 124 472 124 505 153.5 c 128,-1,40
 538 183 538 183 617 183 c 0,41,42
 695 183 695 183 728.5 153.5 c 128,-1,43
 762 124 762 124 762 77 c 256,32,33
EndSplineSet
EndChar

StartChar: at
Encoding: 64 64 31
Width: 1229
Flags: W
LayerCount: 2
Fore
SplineSet
824 894 m 1,0,-1
 824 957 l 2,1,2
 824 1056 824 1056 766.5 1116 c 128,-1,3
 709 1176 709 1176 619 1176 c 0,4,5
 547 1176 547 1176 483.5 1128.5 c 128,-1,6
 420 1081 420 1081 388 1006 c 0,7,8
 331 873 331 873 331 740 c 2,9,-1
 331 436 l 2,10,11
 331 205 331 205 435 69 c 0,12,13
 503 -20 503 -20 625 -20 c 0,14,15
 690 -20 690 -20 744.5 -3 c 128,-1,16
 799 14 799 14 829 44 c 128,-1,17
 859 74 859 74 884 74 c 0,18,19
 917 74 917 74 939 51.5 c 128,-1,20
 961 29 961 29 961 -4 c 0,21,22
 961 -54 961 -54 892 -102 c 0,23,24
 792 -170 792 -170 619 -170 c 0,25,26
 487 -170 487 -170 401 -110 c 0,27,28
 290 -32 290 -32 235 120 c 128,-1,29
 180 272 180 272 180 422 c 2,30,-1
 180 751 l 2,31,32
 180 991 180 991 299 1159 c 128,-1,33
 418 1327 418 1327 616 1327 c 0,34,35
 705 1327 705 1327 784 1290 c 128,-1,36
 863 1253 863 1253 919 1161 c 128,-1,37
 975 1069 975 1069 975 957 c 2,38,-1
 975 410 l 1,39,40
 1019 390 1019 390 1019 343 c 0,41,42
 1019 308 1019 308 995 286.5 c 128,-1,43
 971 265 971 265 914 265 c 2,44,-1
 824 265 l 1,45,-1
 824 271 l 1,46,47
 777 264 777 264 755 264 c 0,48,49
 635 264 635 264 545.5 353 c 128,-1,50
 456 442 456 442 456 562 c 0,51,52
 456 690 456 690 554.5 786.5 c 128,-1,53
 653 883 653 883 824 894 c 1,0,-1
824 739 m 1,54,55
 718 729 718 729 662 677.5 c 128,-1,56
 606 626 606 626 606 560 c 0,57,58
 606 503 606 503 652.5 461 c 128,-1,59
 699 419 699 419 775 419 c 0,60,61
 790 419 790 419 824 422 c 1,62,-1
 824 739 l 1,54,55
EndSplineSet
EndChar

StartChar: A
Encoding: 65 65 32
Width: 1229
Flags: W
LayerCount: 2
Fore
SplineSet
865 330 m 1,0,-1
 367 330 l 1,1,-1
 317 205 l 1,2,-1
 367 205 l 2,3,4
 441 205 441 205 472.5 176.5 c 128,-1,5
 504 148 504 148 504 102 c 0,6,7
 504 57 504 57 472.5 28.5 c 128,-1,8
 441 0 441 0 367 0 c 2,9,-1
 91 0 l 2,10,11
 17 0 17 0 -14.5 28.5 c 128,-1,12
 -46 57 -46 57 -46 103 c 256,13,14
 -46 149 -46 149 -13 178 c 128,-1,15
 20 207 20 207 96 205 c 1,16,-1
 418 1007 l 1,17,-1
 284 1007 l 2,18,19
 210 1007 210 1007 178.5 1035.5 c 128,-1,20
 147 1064 147 1064 147 1110 c 256,21,22
 147 1156 147 1156 178.5 1184.5 c 128,-1,23
 210 1213 210 1213 284 1213 c 2,24,-1
 727 1212 l 1,25,-1
 1135 205 l 1,26,27
 1207 205 1207 205 1230 189 c 0,28,29
 1276 156 1276 156 1276 102 c 0,30,31
 1276 57 1276 57 1245 28.5 c 128,-1,32
 1214 0 1214 0 1140 0 c 2,33,-1
 864 0 l 2,34,35
 790 0 790 0 758.5 28.5 c 128,-1,36
 727 57 727 57 727 103 c 0,37,38
 727 148 727 148 758.5 176.5 c 128,-1,39
 790 205 790 205 864 205 c 2,40,-1
 914 205 l 1,41,-1
 865 330 l 1,0,-1
780 535 m 1,42,-1
 615 941 l 1,43,-1
 449 535 l 1,44,-1
 780 535 l 1,42,-1
EndSplineSet
EndChar

StartChar: B
Encoding: 66 66 33
Width: 1229
Flags: W
LayerCount: 2
Fore
SplineSet
196 205 m 1,0,-1
 196 1007 l 1,1,-1
 164 1007 l 2,2,3
 90 1007 90 1007 58.5 1035.5 c 128,-1,4
 27 1064 27 1064 27 1110 c 256,5,6
 27 1156 27 1156 58.5 1184.5 c 128,-1,7
 90 1213 90 1213 164 1213 c 2,8,-1
 678 1213 l 2,9,10
 862 1213 862 1213 974 1110.5 c 128,-1,11
 1086 1008 1086 1008 1086 867 c 0,12,13
 1086 800 1086 800 1060 741 c 128,-1,14
 1034 682 1034 682 981 632 c 1,15,16
 1078 574 1078 574 1126.5 496.5 c 128,-1,17
 1175 419 1175 419 1175 321 c 0,18,19
 1175 243 1175 243 1140 176 c 0,20,21
 1114 125 1114 125 1076 95 c 0,22,23
 1025 53 1025 53 951 26.5 c 128,-1,24
 877 0 877 0 766 0 c 2,25,-1
 164 0 l 2,26,27
 90 0 90 0 58.5 28.5 c 128,-1,28
 27 57 27 57 27 103 c 0,29,30
 27 148 27 148 59 176.5 c 128,-1,31
 91 205 91 205 164 205 c 2,32,-1
 196 205 l 1,0,-1
401 709 m 1,33,-1
 626 709 l 2,34,35
 747 709 747 709 827 770 c 0,36,37
 881 811 881 811 881 872 c 0,38,39
 881 926 881 926 830 966.5 c 128,-1,40
 779 1007 779 1007 668 1007 c 2,41,-1
 401 1007 l 1,42,-1
 401 709 l 1,33,-1
401 205 m 1,43,-1
 755 205 l 2,44,45
 880 205 880 205 931 242 c 0,46,47
 970 270 970 270 970 322 c 0,48,49
 970 384 970 384 893 444 c 128,-1,50
 816 504 816 504 672 504 c 2,51,-1
 401 504 l 1,52,-1
 401 205 l 1,43,-1
EndSplineSet
EndChar

StartChar: C
Encoding: 67 67 34
Width: 1229
Flags: W
LayerCount: 2
Fore
SplineSet
936 1160 m 1,0,1
 955 1186 955 1186 977.5 1199 c 128,-1,2
 1000 1212 1000 1212 1026 1212 c 0,3,4
 1071 1212 1071 1212 1099.5 1181 c 128,-1,5
 1128 1150 1128 1150 1128 1076 c 2,6,-1
 1128 902 l 2,7,8
 1128 828 1128 828 1099.5 796.5 c 128,-1,9
 1071 765 1071 765 1026 765 c 0,10,11
 985 765 985 765 960 788 c 256,12,13
 935 811 935 811 923 874 c 0,14,15
 916 916 916 916 895 939 c 0,16,17
 854 984 854 984 780.5 1011 c 128,-1,18
 707 1038 707 1038 633 1038 c 0,19,20
 541 1038 541 1038 464 998 c 128,-1,21
 387 958 387 958 328 868 c 128,-1,22
 269 778 269 778 269 654 c 2,23,-1
 269 521 l 2,24,25
 269 373 269 373 376.5 274 c 128,-1,26
 484 175 484 175 675 175 c 0,27,28
 789 175 789 175 868 206 c 0,29,30
 914 224 914 224 966 277 c 0,31,32
 998 309 998 309 1016 318.5 c 128,-1,33
 1034 328 1034 328 1057 328 c 0,34,35
 1098 328 1098 328 1129 297 c 128,-1,36
 1160 266 1160 266 1160 224 c 256,37,38
 1160 182 1160 182 1118 134 c 0,39,40
 1057 64 1057 64 961 24 c 0,41,42
 832 -30 832 -30 676 -30 c 0,43,44
 494 -30 494 -30 348 45 c 0,45,46
 230 105 230 105 147 234.5 c 128,-1,47
 64 364 64 364 64 517 c 2,48,-1
 64 656 l 2,49,50
 64 816 64 816 138.5 954.5 c 128,-1,51
 213 1093 213 1093 345 1168 c 128,-1,52
 477 1243 477 1243 625 1243 c 0,53,54
 714 1243 714 1243 791.5 1222.5 c 128,-1,55
 869 1202 869 1202 936 1160 c 1,0,1
EndSplineSet
EndChar

StartChar: D
Encoding: 68 68 35
Width: 1229
Flags: W
LayerCount: 2
Fore
SplineSet
156 205 m 1,0,-1
 156 1007 l 1,1,2
 91 1008 91 1008 60 1036.5 c 128,-1,3
 29 1065 29 1065 29 1110 c 0,4,5
 29 1156 29 1156 60.5 1184.5 c 128,-1,6
 92 1213 92 1213 166 1213 c 2,7,-1
 595 1212 l 2,8,9
 695 1212 695 1212 790.5 1175 c 128,-1,10
 886 1138 886 1138 944 1081 c 0,11,12
 988 1038 988 1038 1035.5 963 c 128,-1,13
 1083 888 1083 888 1107 814 c 128,-1,14
 1131 740 1131 740 1131 633 c 2,15,-1
 1131 535 l 2,16,17
 1131 405 1131 405 1087 304.5 c 128,-1,18
 1043 204 1043 204 971.5 140.5 c 128,-1,19
 900 77 900 77 837 47 c 0,20,21
 737 0 737 0 578 0 c 2,22,-1
 166 0 l 2,23,24
 92 0 92 0 60.5 28.5 c 128,-1,25
 29 57 29 57 29 103 c 0,26,27
 29 148 29 148 60.5 177 c 128,-1,28
 92 206 92 206 156 205 c 1,0,-1
361 205 m 1,29,-1
 579 205 l 2,30,31
 701 205 701 205 763 240 c 0,32,33
 844 286 844 286 885 357 c 128,-1,34
 926 428 926 428 926 541 c 2,35,-1
 926 638 l 2,36,37
 926 735 926 735 889 808 c 0,38,39
 831 922 831 922 758.5 964.5 c 128,-1,40
 686 1007 686 1007 577 1007 c 2,41,-1
 361 1007 l 1,42,-1
 361 205 l 1,29,-1
EndSplineSet
EndChar

StartChar: E
Encoding: 69 69 36
Width: 1229
Flags: W
LayerCount: 2
Fore
SplineSet
404 506 m 1,0,-1
 404 205 l 1,1,-1
 927 205 l 1,2,-1
 927 316 l 2,3,4
 927 390 927 390 955.5 421.5 c 128,-1,5
 984 453 984 453 1030 453 c 0,6,7
 1075 453 1075 453 1103.5 421.5 c 128,-1,8
 1132 390 1132 390 1132 316 c 2,9,-1
 1132 0 l 1,10,-1
 167 0 l 2,11,12
 93 0 93 0 61.5 28.5 c 128,-1,13
 30 57 30 57 30 103 c 0,14,15
 30 148 30 148 62 176.5 c 128,-1,16
 94 205 94 205 167 205 c 2,17,-1
 199 205 l 1,18,-1
 199 1007 l 1,19,-1
 167 1007 l 2,20,21
 93 1007 93 1007 61.5 1035.5 c 128,-1,22
 30 1064 30 1064 30 1110 c 256,23,24
 30 1156 30 1156 61.5 1184.5 c 128,-1,25
 93 1213 93 1213 167 1213 c 2,26,-1
 1087 1212 l 1,27,-1
 1087 900 l 2,28,29
 1087 827 1087 827 1059 795.5 c 128,-1,30
 1031 764 1031 764 985 764 c 256,31,32
 939 764 939 764 910.5 795 c 128,-1,33
 882 826 882 826 882 900 c 2,34,-1
 882 1007 l 1,35,-1
 404 1007 l 1,36,-1
 404 711 l 1,37,-1
 584 711 l 1,38,39
 584 791 584 791 599 814 c 0,40,41
 630 863 630 863 687 863 c 0,42,43
 732 863 732 863 760.5 831.5 c 128,-1,44
 789 800 789 800 789 726 c 2,45,-1
 789 490 l 2,46,47
 789 423 789 423 773 400 c 0,48,49
 741 353 741 353 687 353 c 0,50,51
 630 353 630 353 599 402 c 0,52,53
 584 425 584 425 584 506 c 1,54,-1
 404 506 l 1,0,-1
EndSplineSet
EndChar

StartChar: F
Encoding: 70 70 37
Width: 1229
Flags: W
LayerCount: 2
Fore
SplineSet
474 505 m 1,0,-1
 474 205 l 1,1,-1
 684 205 l 2,2,3
 758 205 758 205 789.5 176.5 c 128,-1,4
 821 148 821 148 821 102 c 0,5,6
 821 57 821 57 789.5 28.5 c 128,-1,7
 758 0 758 0 684 0 c 2,8,-1
 237 0 l 2,9,10
 163 0 163 0 131.5 28.5 c 128,-1,11
 100 57 100 57 100 103 c 0,12,13
 100 148 100 148 132 176.5 c 128,-1,14
 164 205 164 205 237 205 c 2,15,-1
 269 205 l 1,16,-1
 269 1007 l 1,17,-1
 237 1007 l 2,18,19
 163 1007 163 1007 131.5 1035.5 c 128,-1,20
 100 1064 100 1064 100 1110 c 256,21,22
 100 1156 100 1156 131.5 1184.5 c 128,-1,23
 163 1213 163 1213 237 1213 c 2,24,-1
 1202 1212 l 1,25,-1
 1202 899 l 2,26,27
 1202 826 1202 826 1173.5 794.5 c 128,-1,28
 1145 763 1145 763 1099 763 c 0,29,30
 1054 763 1054 763 1025.5 794 c 128,-1,31
 997 825 997 825 997 899 c 2,32,-1
 997 1007 l 1,33,-1
 474 1007 l 1,34,-1
 474 710 l 1,35,-1
 654 710 l 1,36,37
 654 790 654 790 669 813 c 0,38,39
 700 862 700 862 757 862 c 0,40,41
 802 862 802 862 830.5 830.5 c 128,-1,42
 859 799 859 799 859 725 c 2,43,-1
 859 489 l 2,44,45
 859 415 859 415 830.5 383.5 c 128,-1,46
 802 352 802 352 756 352 c 0,47,48
 700 352 700 352 669 401 c 0,49,50
 654 424 654 424 654 505 c 1,51,-1
 474 505 l 1,0,-1
EndSplineSet
EndChar

StartChar: G
Encoding: 71 71 38
Width: 1229
Flags: W
LayerCount: 2
Fore
SplineSet
1131 375 m 1,0,-1
 1131 100 l 1,1,2
 992 25 992 25 894.5 -2.5 c 128,-1,3
 797 -30 797 -30 684 -30 c 0,4,5
 527 -30 527 -30 393 17 c 0,6,7
 288 53 288 53 227.5 108 c 128,-1,8
 167 163 167 163 116 270.5 c 128,-1,9
 65 378 65 378 65 511 c 2,10,-1
 65 659 l 2,11,12
 65 864 65 864 190 1025 c 0,13,14
 358 1243 358 1243 647 1243 c 0,15,16
 731 1243 731 1243 806.5 1226 c 128,-1,17
 882 1209 882 1209 950 1175 c 1,18,19
 991 1212 991 1212 1030 1212 c 0,20,21
 1075 1212 1075 1212 1103 1181 c 128,-1,22
 1131 1150 1131 1150 1131 1076 c 2,23,-1
 1131 943 l 2,24,25
 1131 869 1131 869 1102.5 837.5 c 128,-1,26
 1074 806 1074 806 1029 806 c 0,27,28
 993 806 993 806 967 828 c 1,29,30
 947 843 947 843 933.5 894.5 c 128,-1,31
 920 946 920 946 903 964 c 0,32,33
 876 993 876 993 807.5 1015.5 c 128,-1,34
 739 1038 739 1038 654 1038 c 0,35,36
 532 1038 532 1038 442 988 c 1,37,38
 378 951 378 951 324 859 c 128,-1,39
 270 767 270 767 270 659 c 2,40,-1
 270 511 l 2,41,42
 270 346 270 346 365.5 260.5 c 128,-1,43
 461 175 461 175 669 175 c 0,44,45
 810 175 810 175 926 228 c 1,46,-1
 926 375 l 1,47,-1
 717 375 l 2,48,49
 643 375 643 375 611.5 403.5 c 128,-1,50
 580 432 580 432 580 478 c 256,51,52
 580 524 580 524 611.5 552.5 c 128,-1,53
 643 581 643 581 717 581 c 2,54,-1
 1081 580 l 2,55,56
 1155 580 1155 580 1186.5 552 c 128,-1,57
 1218 524 1218 524 1218 478 c 0,58,59
 1218 442 1218 442 1196.5 415 c 128,-1,60
 1175 388 1175 388 1131 375 c 1,0,-1
EndSplineSet
EndChar

StartChar: H
Encoding: 72 72 39
Width: 1229
Flags: W
LayerCount: 2
Fore
SplineSet
839 502 m 1,0,-1
 401 502 l 1,1,-1
 401 205 l 1,2,-1
 433 205 l 2,3,4
 507 205 507 205 538.5 176.5 c 128,-1,5
 570 148 570 148 570 102 c 0,6,7
 570 57 570 57 538.5 28.5 c 128,-1,8
 507 0 507 0 433 0 c 2,9,-1
 182 0 l 2,10,11
 108 0 108 0 76.5 28.5 c 128,-1,12
 45 57 45 57 45 103 c 0,13,14
 45 159 45 159 94 190 c 0,15,16
 118 206 118 206 196 205 c 1,17,-1
 196 1007 l 1,18,19
 142 1012 142 1012 114.5 1040 c 128,-1,20
 87 1068 87 1068 87 1110 c 0,21,22
 87 1156 87 1156 118.5 1184.5 c 128,-1,23
 150 1213 150 1213 224 1213 c 2,24,-1
 433 1212 l 2,25,26
 507 1212 507 1212 538.5 1184 c 128,-1,27
 570 1156 570 1156 570 1110 c 256,28,29
 570 1064 570 1064 538.5 1035.5 c 128,-1,30
 507 1007 507 1007 433 1007 c 2,31,-1
 401 1007 l 1,32,-1
 401 707 l 1,33,-1
 839 707 l 1,34,-1
 839 1007 l 1,35,-1
 807 1007 l 2,36,37
 733 1007 733 1007 701.5 1035.5 c 128,-1,38
 670 1064 670 1064 670 1110 c 256,39,40
 670 1156 670 1156 701.5 1184.5 c 128,-1,41
 733 1213 733 1213 807 1213 c 2,42,-1
 1016 1212 l 2,43,44
 1090 1212 1090 1212 1121.5 1184 c 128,-1,45
 1153 1156 1153 1156 1153 1110 c 0,46,47
 1153 1068 1153 1068 1125.5 1040 c 128,-1,48
 1098 1012 1098 1012 1044 1007 c 1,49,-1
 1044 205 l 1,50,51
 1123 205 1123 205 1146 190 c 0,52,53
 1195 159 1195 159 1195 102 c 0,54,55
 1195 57 1195 57 1163.5 28.5 c 128,-1,56
 1132 0 1132 0 1058 0 c 2,57,-1
 807 0 l 2,58,59
 733 0 733 0 701.5 28.5 c 128,-1,60
 670 57 670 57 670 103 c 0,61,62
 670 148 670 148 702 176.5 c 128,-1,63
 734 205 734 205 807 205 c 2,64,-1
 839 205 l 1,65,-1
 839 502 l 1,0,-1
EndSplineSet
EndChar

StartChar: I
Encoding: 73 73 40
Width: 1229
Flags: W
LayerCount: 2
Fore
SplineSet
717 1007 m 1,0,-1
 717 205 l 1,1,-1
 924 205 l 2,2,3
 998 205 998 205 1029.5 176.5 c 128,-1,4
 1061 148 1061 148 1061 102 c 0,5,6
 1061 57 1061 57 1029.5 28.5 c 128,-1,7
 998 0 998 0 924 0 c 2,8,-1
 305 0 l 2,9,10
 231 0 231 0 199.5 28.5 c 128,-1,11
 168 57 168 57 168 103 c 0,12,13
 168 148 168 148 199.5 176.5 c 128,-1,14
 231 205 231 205 305 205 c 2,15,-1
 512 205 l 1,16,-1
 512 1007 l 1,17,-1
 305 1007 l 2,18,19
 231 1007 231 1007 199.5 1035.5 c 128,-1,20
 168 1064 168 1064 168 1110 c 256,21,22
 168 1156 168 1156 199.5 1184.5 c 128,-1,23
 231 1213 231 1213 305 1213 c 2,24,-1
 924 1212 l 2,25,26
 998 1212 998 1212 1029.5 1184 c 128,-1,27
 1061 1156 1061 1156 1061 1110 c 256,28,29
 1061 1064 1061 1064 1029.5 1035.5 c 128,-1,30
 998 1007 998 1007 924 1007 c 2,31,-1
 717 1007 l 1,0,-1
EndSplineSet
EndChar

StartChar: J
Encoding: 74 74 41
Width: 1229
Flags: W
LayerCount: 2
Fore
SplineSet
1000 1007 m 1,0,-1
 1000 387 l 2,1,2
 1000 270 1000 270 961 201 c 0,3,4
 901 94 901 94 787.5 32 c 128,-1,5
 674 -30 674 -30 549 -30 c 0,6,7
 388 -30 388 -30 110 106 c 1,8,-1
 110 443 l 2,9,10
 110 517 110 517 138.5 548.5 c 128,-1,11
 167 580 167 580 213 580 c 0,12,13
 258 580 258 580 286.5 548.5 c 128,-1,14
 315 517 315 517 315 443 c 2,15,-1
 315 242 l 1,16,17
 456 175 456 175 556 175 c 0,18,19
 609 175 609 175 666 199.5 c 128,-1,20
 723 224 723 224 752 258 c 128,-1,21
 781 292 781 292 790 325 c 0,22,23
 795 343 795 343 795 411 c 2,24,-1
 795 1007 l 1,25,-1
 546 1007 l 2,26,27
 472 1007 472 1007 440.5 1035.5 c 128,-1,28
 409 1064 409 1064 409 1110 c 256,29,30
 409 1156 409 1156 440.5 1184.5 c 128,-1,31
 472 1213 472 1213 546 1213 c 2,32,-1
 1120 1212 l 2,33,34
 1194 1212 1194 1212 1225.5 1184 c 128,-1,35
 1257 1156 1257 1156 1257 1110 c 256,36,37
 1257 1064 1257 1064 1225.5 1035.5 c 128,-1,38
 1194 1007 1194 1007 1120 1007 c 2,39,-1
 1000 1007 l 1,0,-1
EndSplineSet
EndChar

StartChar: K
Encoding: 75 75 42
Width: 1229
Flags: W
LayerCount: 2
Fore
SplineSet
401 432 m 1,0,-1
 401 205 l 1,1,-1
 475 205 l 2,2,3
 549 205 549 205 580.5 176.5 c 128,-1,4
 612 148 612 148 612 102 c 0,5,6
 612 57 612 57 580.5 28.5 c 128,-1,7
 549 0 549 0 475 0 c 2,8,-1
 164 0 l 2,9,10
 90 0 90 0 58.5 28.5 c 128,-1,11
 27 57 27 57 27 103 c 0,12,13
 27 148 27 148 59 176.5 c 128,-1,14
 91 205 91 205 164 205 c 2,15,-1
 196 205 l 1,16,-1
 196 1007 l 1,17,-1
 164 1007 l 2,18,19
 90 1007 90 1007 58.5 1035.5 c 128,-1,20
 27 1064 27 1064 27 1110 c 256,21,22
 27 1156 27 1156 58.5 1184.5 c 128,-1,23
 90 1213 90 1213 164 1213 c 2,24,-1
 475 1212 l 2,25,26
 549 1212 549 1212 580.5 1184 c 128,-1,27
 612 1156 612 1156 612 1110 c 256,28,29
 612 1064 612 1064 580.5 1035.5 c 128,-1,30
 549 1007 549 1007 475 1007 c 2,31,-1
 401 1007 l 1,32,-1
 401 703 l 1,33,-1
 765 1016 l 1,34,35
 733 1039 733 1039 721 1059 c 128,-1,36
 709 1079 709 1079 709 1108 c 0,37,38
 709 1155 709 1155 740.5 1184 c 128,-1,39
 772 1213 772 1213 846 1213 c 2,40,-1
 1055 1212 l 2,41,42
 1129 1212 1129 1212 1160.5 1184 c 128,-1,43
 1192 1156 1192 1156 1192 1110 c 0,44,45
 1192 1065 1192 1065 1160.5 1036 c 128,-1,46
 1129 1007 1129 1007 1062 1007 c 1,47,-1
 694 685 l 1,48,49
 797 626 797 626 887.5 505 c 128,-1,50
 978 384 978 384 1048 205 c 1,51,-1
 1103 205 l 2,52,53
 1176 205 1176 205 1207.5 176.5 c 128,-1,54
 1239 148 1239 148 1239 102 c 0,55,56
 1239 57 1239 57 1208 28.5 c 128,-1,57
 1177 0 1177 0 1103 0 c 2,58,-1
 917 0 l 1,59,60
 853 153 853 153 777 292 c 0,61,62
 715 405 715 405 659.5 456.5 c 128,-1,63
 604 508 604 508 527 539 c 1,64,-1
 401 432 l 1,0,-1
EndSplineSet
EndChar

StartChar: L
Encoding: 76 76 43
Width: 1229
Flags: W
LayerCount: 2
Fore
SplineSet
529 1007 m 1,0,-1
 529 205 l 1,1,-1
 971 205 l 1,2,-1
 971 399 l 2,3,4
 971 473 971 473 999.5 504.5 c 128,-1,5
 1028 536 1028 536 1074 536 c 0,6,7
 1119 536 1119 536 1147.5 504.5 c 128,-1,8
 1176 473 1176 473 1176 399 c 2,9,-1
 1176 0 l 1,10,-1
 205 0 l 2,11,12
 131 0 131 0 99.5 28.5 c 128,-1,13
 68 57 68 57 68 103 c 0,14,15
 68 148 68 148 99.5 176.5 c 128,-1,16
 131 205 131 205 205 205 c 2,17,-1
 324 205 l 1,18,-1
 324 1007 l 1,19,-1
 205 1007 l 2,20,21
 131 1007 131 1007 99.5 1035.5 c 128,-1,22
 68 1064 68 1064 68 1110 c 256,23,24
 68 1156 68 1156 99.5 1184.5 c 128,-1,25
 131 1213 131 1213 205 1213 c 2,26,-1
 649 1212 l 2,27,28
 723 1212 723 1212 754.5 1184 c 128,-1,29
 786 1156 786 1156 786 1110 c 256,30,31
 786 1064 786 1064 754.5 1035.5 c 128,-1,32
 723 1007 723 1007 649 1007 c 2,33,-1
 529 1007 l 1,0,-1
EndSplineSet
EndChar

StartChar: M
Encoding: 77 77 44
Width: 1229
Flags: W
LayerCount: 2
Fore
SplineSet
294 816 m 1,0,-1
 294 205 l 1,1,-1
 368 205 l 2,2,3
 442 205 442 205 473.5 176.5 c 128,-1,4
 505 148 505 148 505 102 c 0,5,6
 505 57 505 57 473.5 28.5 c 128,-1,7
 442 0 442 0 368 0 c 2,8,-1
 99 0 l 2,9,10
 25 0 25 0 -6.5 28.5 c 128,-1,11
 -38 57 -38 57 -38 103 c 0,12,13
 -38 148 -38 148 -7 176.5 c 128,-1,14
 24 205 24 205 89 205 c 1,15,-1
 89 1007 l 1,16,17
 35 1012 35 1012 7.5 1040 c 128,-1,18
 -20 1068 -20 1068 -20 1110 c 0,19,20
 -20 1156 -20 1156 11.5 1184.5 c 128,-1,21
 43 1213 43 1213 117 1213 c 2,22,-1
 342 1212 l 1,23,-1
 621 595 l 1,24,-1
 895 1213 l 1,25,-1
 1122 1212 l 2,26,27
 1196 1212 1196 1212 1227.5 1184 c 128,-1,28
 1259 1156 1259 1156 1259 1110 c 0,29,30
 1259 1068 1259 1068 1231 1040 c 128,-1,31
 1203 1012 1203 1012 1150 1007 c 1,32,-1
 1150 205 l 1,33,34
 1215 205 1215 205 1246 176 c 128,-1,35
 1277 147 1277 147 1277 102 c 256,36,37
 1277 57 1277 57 1245.5 28.5 c 128,-1,38
 1214 0 1214 0 1140 0 c 2,39,-1
 870 0 l 2,40,41
 797 0 797 0 765.5 28.5 c 128,-1,42
 734 57 734 57 734 103 c 0,43,44
 734 148 734 148 765.5 176.5 c 128,-1,45
 797 205 797 205 870 205 c 2,46,-1
 945 205 l 1,47,-1
 945 816 l 1,48,-1
 710 288 l 1,49,-1
 532 288 l 1,50,-1
 294 816 l 1,0,-1
EndSplineSet
EndChar

StartChar: N
Encoding: 78 78 45
Width: 1229
Flags: W
LayerCount: 2
Fore
SplineSet
358 825 m 1,0,-1
 358 205 l 1,1,-1
 432 205 l 2,2,3
 506 205 506 205 537.5 176.5 c 128,-1,4
 569 148 569 148 569 102 c 0,5,6
 569 57 569 57 537.5 28.5 c 128,-1,7
 506 0 506 0 432 0 c 2,8,-1
 163 0 l 2,9,10
 89 0 89 0 57.5 28.5 c 128,-1,11
 26 57 26 57 26 103 c 0,12,13
 26 147 26 147 57 176 c 128,-1,14
 88 205 88 205 153 205 c 1,15,-1
 153 1007 l 1,16,-1
 121 1007 l 2,17,18
 47 1007 47 1007 15.5 1035.5 c 128,-1,19
 -16 1064 -16 1064 -16 1110 c 256,20,21
 -16 1156 -16 1156 15.5 1184.5 c 128,-1,22
 47 1213 47 1213 121 1213 c 2,23,-1
 358 1212 l 1,24,-1
 882 390 l 1,25,-1
 882 1007 l 1,26,-1
 808 1007 l 2,27,28
 734 1007 734 1007 702.5 1035.5 c 128,-1,29
 671 1064 671 1064 671 1110 c 256,30,31
 671 1156 671 1156 702.5 1184.5 c 128,-1,32
 734 1213 734 1213 808 1213 c 2,33,-1
 1077 1212 l 2,34,35
 1151 1212 1151 1212 1182.5 1184 c 128,-1,36
 1214 1156 1214 1156 1214 1110 c 0,37,38
 1214 1065 1214 1065 1183 1036 c 128,-1,39
 1152 1007 1152 1007 1088 1007 c 1,40,-1
 1088 0 l 1,41,-1
 885 0 l 1,42,-1
 358 825 l 1,0,-1
EndSplineSet
EndChar

StartChar: O
Encoding: 79 79 46
Width: 1229
Flags: W
LayerCount: 2
Fore
SplineSet
1190 606 m 0,0,1
 1190 333 1190 333 1016.5 151.5 c 128,-1,2
 843 -30 843 -30 615 -30 c 0,3,4
 410 -30 410 -30 245 121 c 0,5,6
 41 308 41 308 41 606 c 256,7,8
 41 904 41 904 245 1092 c 0,9,10
 410 1243 410 1243 615 1243 c 0,11,12
 843 1243 843 1243 1016.5 1061.5 c 128,-1,13
 1190 880 1190 880 1190 606 c 0,0,1
985 606 m 256,14,15
 985 793 985 793 872 915.5 c 128,-1,16
 759 1038 759 1038 615 1038 c 0,17,18
 472 1038 472 1038 359 915 c 128,-1,19
 246 792 246 792 246 606 c 256,20,21
 246 420 246 420 359 297.5 c 128,-1,22
 472 175 472 175 615 175 c 0,23,24
 759 175 759 175 872 297 c 128,-1,25
 985 419 985 419 985 606 c 256,14,15
EndSplineSet
EndChar

StartChar: P
Encoding: 80 80 47
Width: 1229
Flags: W
LayerCount: 2
Fore
SplineSet
496 416 m 1,0,-1
 496 205 l 1,1,-1
 703 205 l 2,2,3
 777 205 777 205 808.5 176.5 c 128,-1,4
 840 148 840 148 840 102 c 0,5,6
 840 57 840 57 808.5 28.5 c 128,-1,7
 777 0 777 0 703 0 c 2,8,-1
 259 0 l 2,9,10
 185 0 185 0 153.5 28.5 c 128,-1,11
 122 57 122 57 122 103 c 0,12,13
 122 148 122 148 154 176.5 c 128,-1,14
 186 205 186 205 259 205 c 2,15,-1
 291 205 l 1,16,-1
 291 1007 l 1,17,-1
 259 1007 l 2,18,19
 185 1007 185 1007 153.5 1035.5 c 128,-1,20
 122 1064 122 1064 122 1110 c 256,21,22
 122 1156 122 1156 153.5 1184.5 c 128,-1,23
 185 1213 185 1213 259 1213 c 2,24,-1
 731 1212 l 2,25,26
 939 1212 939 1212 1060.5 1098.5 c 128,-1,27
 1182 985 1182 985 1182 822 c 0,28,29
 1182 732 1182 732 1141 652 c 0,30,31
 1110 592 1110 592 1037.5 533.5 c 128,-1,32
 965 475 965 475 889.5 445.5 c 128,-1,33
 814 416 814 416 690 416 c 2,34,-1
 496 416 l 1,0,-1
496 621 m 1,35,-1
 686 621 l 2,36,37
 820 621 820 621 898.5 681.5 c 128,-1,38
 977 742 977 742 977 827 c 0,39,40
 977 899 977 899 913.5 953 c 128,-1,41
 850 1007 850 1007 732 1007 c 2,42,-1
 496 1007 l 1,43,-1
 496 621 l 1,35,-1
EndSplineSet
EndChar

StartChar: Q
Encoding: 81 81 48
Width: 1229
Flags: W
LayerCount: 2
Fore
SplineSet
662 -28 m 1,0,-1
 656 -37 l 1,1,2
 762 -37 762 -37 855 -80 c 0,3,4
 893 -98 893 -98 918 -98 c 0,5,6
 954 -98 954 -98 1006 -64 c 128,-1,7
 1058 -30 1058 -30 1088 -30 c 0,8,9
 1131 -30 1131 -30 1160.5 -59.5 c 128,-1,10
 1190 -89 1190 -89 1190 -133 c 0,11,12
 1190 -186 1190 -186 1135 -225 c 0,13,14
 1026 -303 1026 -303 916 -303 c 0,15,16
 860 -303 860 -303 803 -281 c 0,17,18
 711 -245 711 -245 657 -245 c 0,19,20
 570 -245 570 -245 392 -290 c 0,21,22
 355 -299 355 -299 334 -299 c 0,23,24
 295 -299 295 -299 265.5 -268.5 c 128,-1,25
 236 -238 236 -238 236 -192 c 0,26,27
 236 -152 236 -152 276 -113 c 2,28,-1
 407 14 l 1,29,30
 245 84 245 84 142.5 242 c 128,-1,31
 40 400 40 400 40 606 c 0,32,33
 40 904 40 904 245 1092 c 0,34,35
 409 1243 409 1243 614 1243 c 0,36,37
 820 1243 820 1243 984 1092 c 0,38,39
 1189 904 1189 904 1189 606 c 0,40,41
 1189 350 1189 350 1034 171.5 c 128,-1,42
 879 -7 879 -7 662 -28 c 1,0,-1
984 606 m 256,43,44
 984 793 984 793 871 915.5 c 128,-1,45
 758 1038 758 1038 614 1038 c 0,46,47
 471 1038 471 1038 358 915 c 128,-1,48
 245 792 245 792 245 606 c 256,49,50
 245 420 245 420 358 297.5 c 128,-1,51
 471 175 471 175 614 175 c 0,52,53
 758 175 758 175 871 297 c 128,-1,54
 984 419 984 419 984 606 c 256,43,44
EndSplineSet
EndChar

StartChar: R
Encoding: 82 82 49
Width: 1229
Flags: W
LayerCount: 2
Fore
SplineSet
403 463 m 1,0,-1
 403 205 l 1,1,-1
 477 205 l 2,2,3
 551 205 551 205 582.5 176.5 c 128,-1,4
 614 148 614 148 614 102 c 0,5,6
 614 57 614 57 582.5 28.5 c 128,-1,7
 551 0 551 0 477 0 c 2,8,-1
 166 0 l 2,9,10
 92 0 92 0 60.5 28.5 c 128,-1,11
 29 57 29 57 29 103 c 0,12,13
 29 148 29 148 61 176.5 c 128,-1,14
 93 205 93 205 166 205 c 2,15,-1
 198 205 l 1,16,-1
 198 1007 l 1,17,-1
 166 1007 l 2,18,19
 92 1007 92 1007 60.5 1035.5 c 128,-1,20
 29 1064 29 1064 29 1110 c 256,21,22
 29 1156 29 1156 60.5 1184.5 c 128,-1,23
 92 1213 92 1213 166 1213 c 2,24,-1
 630 1212 l 2,25,26
 847 1212 847 1212 966.5 1104.5 c 128,-1,27
 1086 997 1086 997 1086 843 c 0,28,29
 1086 747 1086 747 1030 668.5 c 128,-1,30
 974 590 974 590 861 529 c 1,31,32
 926 472 926 472 1000 383 c 1,33,34
 1046 326 1046 326 1124 205 c 1,35,36
 1202 205 1202 205 1227 189 c 1,37,38
 1272 158 1272 158 1272 102 c 0,39,40
 1272 57 1272 57 1241 28.5 c 128,-1,41
 1210 0 1210 0 1136 0 c 2,42,-1
 1019 0 l 1,43,44
 770 385 770 385 606 463 c 1,45,-1
 403 463 l 1,0,-1
403 668 m 1,46,-1
 563 668 l 2,47,48
 652 668 652 668 722 695 c 0,49,50
 816 731 816 731 848.5 771 c 128,-1,51
 881 811 881 811 881 850 c 0,52,53
 881 908 881 908 819 957.5 c 128,-1,54
 757 1007 757 1007 638 1007 c 2,55,-1
 403 1007 l 1,56,-1
 403 668 l 1,46,-1
EndSplineSet
EndChar

StartChar: S
Encoding: 83 83 50
Width: 1229
Flags: W
LayerCount: 2
Fore
SplineSet
315 52 m 1,0,1
 288 20 288 20 271.5 11 c 128,-1,2
 255 2 255 2 231 2 c 0,3,4
 184 2 184 2 155.5 33.5 c 128,-1,5
 127 65 127 65 127 138 c 2,6,-1
 127 276 l 2,7,8
 127 350 127 350 155.5 381.5 c 128,-1,9
 184 413 184 413 231 413 c 0,10,11
 267 413 267 413 291.5 394 c 128,-1,12
 316 375 316 375 329 330.5 c 128,-1,13
 342 286 342 286 356 270 c 0,14,15
 385 239 385 239 459 207 c 128,-1,16
 533 175 533 175 621 175 c 0,17,18
 758 175 758 175 846 239 c 1,19,20
 902 278 902 278 902 335 c 0,21,22
 902 373 902 373 875 406.5 c 128,-1,23
 848 440 848 440 787 462 c 0,24,25
 747 477 747 477 608 503 c 0,26,27
 440 534 440 534 354 578 c 128,-1,28
 268 622 268 622 218 702 c 128,-1,29
 168 782 168 782 168 875 c 0,30,31
 168 1022 168 1022 291 1132.5 c 128,-1,32
 414 1243 414 1243 611 1243 c 0,33,34
 690 1243 690 1243 757.5 1225.5 c 128,-1,35
 825 1208 825 1208 880 1172 c 1,36,37
 920 1211 920 1211 960 1211 c 0,38,39
 1005 1211 1005 1211 1033.5 1179.5 c 128,-1,40
 1062 1148 1062 1148 1062 1075 c 2,41,-1
 1062 921 l 2,42,43
 1062 847 1062 847 1033.5 815.5 c 128,-1,44
 1005 784 1005 784 960 784 c 0,45,46
 922 784 922 784 894 807 c 0,47,48
 872 824 872 824 861 875 c 128,-1,49
 850 926 850 926 833 948 c 0,50,51
 804 986 804 986 746 1012 c 128,-1,52
 688 1038 688 1038 612 1038 c 0,53,54
 501 1038 501 1038 436.5 986.5 c 128,-1,55
 372 935 372 935 372 879 c 0,56,57
 372 841 372 841 398.5 805.5 c 128,-1,58
 425 770 425 770 476 750 c 0,59,60
 510 736 510 736 667.5 705 c 128,-1,61
 825 674 825 674 909.5 637 c 128,-1,62
 994 600 994 600 1050 521 c 128,-1,63
 1106 442 1106 442 1106 333 c 0,64,65
 1106 181 1106 181 999 90 c 0,66,67
 857 -30 857 -30 637 -30 c 0,68,69
 552 -30 552 -30 471.5 -9.5 c 128,-1,70
 391 11 391 11 315 52 c 1,0,1
EndSplineSet
EndChar

StartChar: T
Encoding: 84 84 51
Width: 1229
Flags: W
LayerCount: 2
Fore
SplineSet
714 1007 m 1,0,-1
 714 205 l 1,1,-1
 852 205 l 2,2,3
 926 205 926 205 957.5 176.5 c 128,-1,4
 989 148 989 148 989 102 c 0,5,6
 989 57 989 57 957.5 28.5 c 128,-1,7
 926 0 926 0 852 0 c 2,8,-1
 372 0 l 2,9,10
 298 0 298 0 266.5 28.5 c 128,-1,11
 235 57 235 57 235 103 c 0,12,13
 235 148 235 148 266.5 176.5 c 128,-1,14
 298 205 298 205 372 205 c 2,15,-1
 509 205 l 1,16,-1
 509 1007 l 1,17,-1
 287 1007 l 1,18,-1
 287 813 l 2,19,20
 287 739 287 739 258.5 707.5 c 128,-1,21
 230 676 230 676 184 676 c 0,22,23
 139 676 139 676 110.5 707.5 c 128,-1,24
 82 739 82 739 82 813 c 2,25,-1
 82 1213 l 1,26,-1
 1144 1212 l 1,27,-1
 1144 813 l 2,28,29
 1144 739 1144 739 1115.5 707.5 c 128,-1,30
 1087 676 1087 676 1041 676 c 0,31,32
 996 676 996 676 967.5 707.5 c 128,-1,33
 939 739 939 739 939 813 c 2,34,-1
 939 1007 l 1,35,-1
 714 1007 l 1,0,-1
EndSplineSet
EndChar

StartChar: U
Encoding: 85 85 52
Width: 1229
Flags: W
LayerCount: 2
Fore
SplineSet
1083 1007 m 1,0,-1
 1083 426 l 2,1,2
 1083 236 1083 236 946.5 103 c 128,-1,3
 810 -30 810 -30 618 -30 c 0,4,5
 523 -30 523 -30 439.5 3.5 c 128,-1,6
 356 37 356 37 289.5 102 c 128,-1,7
 223 167 223 167 186 237.5 c 128,-1,8
 149 308 149 308 149 426 c 2,9,-1
 149 1007 l 1,10,11
 84 1007 84 1007 53 1036 c 128,-1,12
 22 1065 22 1065 22 1110 c 0,13,14
 22 1156 22 1156 53 1184 c 128,-1,15
 84 1212 84 1212 159 1212 c 2,16,-1
 428 1213 l 2,17,18
 502 1213 502 1213 533.5 1184.5 c 128,-1,19
 565 1156 565 1156 565 1110 c 256,20,21
 565 1064 565 1064 533.5 1035.5 c 128,-1,22
 502 1007 502 1007 428 1007 c 2,23,-1
 354 1007 l 1,24,-1
 354 408 l 2,25,26
 354 316 354 316 430.5 245.5 c 128,-1,27
 507 175 507 175 615 175 c 0,28,29
 687 175 687 175 750 209 c 128,-1,30
 813 243 813 243 853 308 c 0,31,32
 878 349 878 349 878 408 c 2,33,-1
 878 1007 l 1,34,-1
 804 1007 l 2,35,36
 730 1007 730 1007 698.5 1035.5 c 128,-1,37
 667 1064 667 1064 667 1110 c 256,38,39
 667 1156 667 1156 698.5 1184.5 c 128,-1,40
 730 1213 730 1213 804 1213 c 2,41,-1
 1073 1212 l 2,42,43
 1147 1212 1147 1212 1178.5 1184 c 128,-1,44
 1210 1156 1210 1156 1210 1110 c 0,45,46
 1210 1065 1210 1065 1179 1036 c 128,-1,47
 1148 1007 1148 1007 1083 1007 c 1,0,-1
EndSplineSet
EndChar

StartChar: V
Encoding: 86 86 53
Width: 1229
Flags: W
LayerCount: 2
Fore
SplineSet
614 299 m 1,0,-1
 911 1007 l 1,1,-1
 864 1007 l 2,2,3
 790 1007 790 1007 758.5 1035.5 c 128,-1,4
 727 1064 727 1064 727 1110 c 256,5,6
 727 1156 727 1156 758.5 1184.5 c 128,-1,7
 790 1213 790 1213 864 1213 c 2,8,-1
 1139 1212 l 2,9,10
 1213 1212 1213 1212 1244.5 1184 c 128,-1,11
 1276 1156 1276 1156 1276 1110 c 0,12,13
 1276 1055 1276 1055 1228 1023 c 0,14,15
 1205 1007 1205 1007 1134 1007 c 1,16,-1
 713 0 l 1,17,-1
 516 0 l 1,18,-1
 96 1007 l 1,19,20
 24 1007 24 1007 1 1023 c 0,21,22
 -47 1054 -47 1054 -47 1110 c 0,23,24
 -47 1156 -47 1156 -15.5 1184.5 c 128,-1,25
 16 1213 16 1213 90 1213 c 2,26,-1
 367 1212 l 2,27,28
 440 1212 440 1212 471.5 1184 c 128,-1,29
 503 1156 503 1156 503 1110 c 256,30,31
 503 1064 503 1064 472 1035.5 c 128,-1,32
 441 1007 441 1007 367 1007 c 2,33,-1
 319 1007 l 1,34,-1
 614 299 l 1,0,-1
EndSplineSet
EndChar

StartChar: W
Encoding: 87 87 54
Width: 1229
Flags: W
LayerCount: 2
Fore
SplineSet
615 582 m 1,0,-1
 425 0 l 1,1,-1
 195 0 l 1,2,-1
 73 1007 l 1,3,4
 26 1013 26 1013 2 1039.5 c 128,-1,5
 -22 1066 -22 1066 -22 1107 c 0,6,7
 -22 1155 -22 1155 9.5 1184 c 128,-1,8
 41 1213 41 1213 115 1213 c 2,9,-1
 388 1212 l 2,10,11
 462 1212 462 1212 493.5 1184 c 128,-1,12
 525 1156 525 1156 525 1110 c 256,13,14
 525 1064 525 1064 493.5 1035.5 c 128,-1,15
 462 1007 462 1007 388 1007 c 2,16,-1
 281 1007 l 1,17,-1
 349 434 l 1,18,-1
 510 911 l 1,19,-1
 723 911 l 1,20,-1
 883 434 l 1,21,-1
 951 1007 l 1,22,-1
 844 1007 l 2,23,24
 770 1007 770 1007 738.5 1035.5 c 128,-1,25
 707 1064 707 1064 707 1110 c 256,26,27
 707 1156 707 1156 738.5 1184.5 c 128,-1,28
 770 1213 770 1213 844 1213 c 2,29,-1
 1116 1212 l 2,30,31
 1190 1212 1190 1212 1221.5 1184 c 128,-1,32
 1253 1156 1253 1156 1253 1110 c 0,33,34
 1253 1071 1253 1071 1228 1043 c 128,-1,35
 1203 1015 1203 1015 1156 1007 c 1,36,-1
 1038 0 l 1,37,-1
 812 0 l 1,38,-1
 615 582 l 1,0,-1
EndSplineSet
EndChar

StartChar: X
Encoding: 88 88 55
Width: 1229
Flags: W
LayerCount: 2
Fore
SplineSet
749 618 m 1,0,-1
 1091 205 l 1,1,2
 1152 204 1152 204 1182.5 175.5 c 128,-1,3
 1213 147 1213 147 1213 102 c 256,4,5
 1213 57 1213 57 1181.5 28.5 c 128,-1,6
 1150 0 1150 0 1076 0 c 2,7,-1
 845 0 l 2,8,9
 772 0 772 0 740.5 28.5 c 128,-1,10
 709 57 709 57 709 103 c 0,11,12
 709 146 709 146 738 174.5 c 128,-1,13
 767 203 767 203 825 205 c 1,14,-1
 619 459 l 1,15,-1
 411 205 l 1,16,17
 468 203 468 203 497 174 c 128,-1,18
 526 145 526 145 526 102 c 0,19,20
 526 57 526 57 494.5 28.5 c 128,-1,21
 463 0 463 0 389 0 c 2,22,-1
 159 0 l 2,23,24
 85 0 85 0 53.5 28.5 c 128,-1,25
 22 57 22 57 22 103 c 0,26,27
 22 147 22 147 53 176 c 128,-1,28
 84 205 84 205 144 205 c 1,29,-1
 484 620 l 1,30,-1
 160 1007 l 1,31,32
 100 1009 100 1009 70.5 1037.5 c 128,-1,33
 41 1066 41 1066 41 1110 c 0,34,35
 41 1156 41 1156 72.5 1184.5 c 128,-1,36
 104 1213 104 1213 178 1213 c 2,37,-1
 367 1212 l 2,38,39
 441 1212 441 1212 472.5 1184 c 128,-1,40
 504 1156 504 1156 504 1110 c 0,41,42
 504 1076 504 1076 484 1048 c 0,43,44
 471 1031 471 1031 426 1007 c 1,45,-1
 617 778 l 1,46,-1
 804 1007 l 1,47,48
 759 1031 759 1031 746 1048 c 0,49,50
 726 1076 726 1076 726 1110 c 0,51,52
 726 1155 726 1155 757.5 1184 c 128,-1,53
 789 1213 789 1213 863 1213 c 2,54,-1
 1051 1212 l 2,55,56
 1125 1212 1125 1212 1156.5 1184 c 128,-1,57
 1188 1156 1188 1156 1188 1110 c 0,58,59
 1188 1066 1188 1066 1157.5 1037 c 128,-1,60
 1127 1008 1127 1008 1069 1007 c 1,61,-1
 749 618 l 1,0,-1
EndSplineSet
EndChar

StartChar: Y
Encoding: 89 89 56
Width: 1229
Flags: W
LayerCount: 2
Fore
SplineSet
718 509 m 1,0,-1
 718 205 l 1,1,-1
 856 205 l 2,2,3
 930 205 930 205 961.5 176.5 c 128,-1,4
 993 148 993 148 993 102 c 0,5,6
 993 57 993 57 961.5 28.5 c 128,-1,7
 930 0 930 0 856 0 c 2,8,-1
 375 0 l 2,9,10
 302 0 302 0 270.5 28.5 c 128,-1,11
 239 57 239 57 239 103 c 0,12,13
 239 148 239 148 270.5 176.5 c 128,-1,14
 302 205 302 205 375 205 c 2,15,-1
 513 205 l 1,16,-1
 513 509 l 1,17,-1
 174 1007 l 1,18,19
 106 1007 106 1007 74.5 1036 c 128,-1,20
 43 1065 43 1065 43 1110 c 0,21,22
 43 1156 43 1156 74.5 1184.5 c 128,-1,23
 106 1213 106 1213 180 1213 c 2,24,-1
 366 1212 l 2,25,26
 440 1212 440 1212 471.5 1184 c 128,-1,27
 503 1156 503 1156 503 1110 c 0,28,29
 503 1041 503 1041 422 1007 c 1,30,-1
 616 721 l 1,31,-1
 806 1007 l 1,32,33
 761 1024 761 1024 742 1050 c 128,-1,34
 723 1076 723 1076 723 1110 c 0,35,36
 723 1156 723 1156 754.5 1184 c 128,-1,37
 786 1212 786 1212 860 1213 c 1,38,-1
 1053 1212 l 2,39,40
 1127 1212 1127 1212 1158.5 1184 c 128,-1,41
 1190 1156 1190 1156 1190 1110 c 256,42,43
 1190 1064 1190 1064 1158 1035.5 c 128,-1,44
 1126 1007 1126 1007 1054 1007 c 1,45,-1
 718 509 l 1,0,-1
EndSplineSet
EndChar

StartChar: Z
Encoding: 90 90 57
Width: 1229
Flags: W
LayerCount: 2
Fore
SplineSet
413 205 m 1,0,-1
 878 205 l 1,1,-1
 878 357 l 2,2,3
 878 431 878 431 906.5 462.5 c 128,-1,4
 935 494 935 494 981 494 c 256,5,6
 1027 494 1027 494 1055.5 462.5 c 128,-1,7
 1084 431 1084 431 1084 357 c 2,8,-1
 1083 0 l 1,9,-1
 151 0 l 1,10,-1
 151 205 l 1,11,-1
 776 1007 l 1,12,-1
 398 1007 l 1,13,-1
 398 860 l 2,14,15
 398 786 398 786 370 754.5 c 128,-1,16
 342 723 342 723 296 723 c 256,17,18
 250 723 250 723 221.5 754.5 c 128,-1,19
 193 786 193 786 193 860 c 2,20,-1
 193 1213 l 1,21,-1
 1041 1212 l 1,22,-1
 1041 1012 l 1,23,-1
 413 205 l 1,0,-1
EndSplineSet
EndChar

StartChar: bracketleft
Encoding: 91 91 58
Width: 1229
Flags: W
LayerCount: 2
Fore
SplineSet
715 1089 m 1,0,-1
 715 -115 l 1,1,-1
 839 -115 l 2,2,3
 913 -115 913 -115 944.5 -143 c 128,-1,4
 976 -171 976 -171 976 -217 c 256,5,6
 976 -263 976 -263 944.5 -291.5 c 128,-1,7
 913 -320 913 -320 839 -320 c 2,8,-1
 510 -320 l 1,9,-1
 510 1294 l 1,10,-1
 838 1294 l 2,11,12
 912 1294 912 1294 943.5 1265.5 c 128,-1,13
 975 1237 975 1237 975 1191 c 0,14,15
 975 1146 975 1146 943.5 1117.5 c 128,-1,16
 912 1089 912 1089 838 1089 c 2,17,-1
 715 1089 l 1,0,-1
EndSplineSet
EndChar

StartChar: backslash
Encoding: 92 92 59
Width: 1229
Flags: W
LayerCount: 2
Fore
SplineSet
380 1356 m 2,0,-1
 1038 -54 l 2,1,2
 1043 -65 1043 -65 1055 -105 c 0,3,4
 1061 -128 1061 -128 1061 -140 c 0,5,6
 1061 -176 1061 -176 1032.5 -203 c 128,-1,7
 1004 -230 1004 -230 962 -230 c 0,8,9
 923 -230 923 -230 900 -212 c 128,-1,10
 877 -194 877 -194 852 -142 c 2,11,-1
 195 1269 l 2,12,13
 170 1322 170 1322 170 1348 c 0,14,15
 170 1386 170 1386 200.5 1416 c 128,-1,16
 231 1446 231 1446 272 1446 c 0,17,18
 309 1446 309 1446 332 1428 c 128,-1,19
 355 1410 355 1410 380 1356 c 2,0,-1
EndSplineSet
EndChar

StartChar: bracketright
Encoding: 93 93 60
Width: 1229
Flags: W
LayerCount: 2
Fore
SplineSet
514 -115 m 1,0,-1
 514 1089 l 1,1,-1
 390 1089 l 2,2,3
 316 1089 316 1089 284.5 1117.5 c 128,-1,4
 253 1146 253 1146 253 1191 c 0,5,6
 253 1237 253 1237 284.5 1265.5 c 128,-1,7
 316 1294 316 1294 390 1294 c 2,8,-1
 719 1294 l 1,9,-1
 719 -320 l 1,10,-1
 391 -320 l 2,11,12
 317 -320 317 -320 285.5 -291.5 c 128,-1,13
 254 -263 254 -263 254 -217 c 0,14,15
 254 -172 254 -172 285.5 -143.5 c 128,-1,16
 317 -115 317 -115 391 -115 c 2,17,-1
 514 -115 l 1,0,-1
EndSplineSet
EndChar

StartChar: asciicircum
Encoding: 94 94 61
Width: 1229
Flags: W
LayerCount: 2
Fore
SplineSet
612 1031 m 1,0,-1
 371 741 l 2,1,2
 338 701 338 701 318 689 c 128,-1,3
 298 677 298 677 271 677 c 0,4,5
 228 677 228 677 197.5 707.5 c 128,-1,6
 167 738 167 738 167 782 c 0,7,8
 167 817 167 817 212 872 c 2,9,-1
 612 1355 l 1,10,-1
 1015 872 l 2,11,12
 1044 837 1044 837 1052.5 819 c 128,-1,13
 1061 801 1061 801 1061 781 c 0,14,15
 1061 738 1061 738 1030.5 707.5 c 128,-1,16
 1000 677 1000 677 958 677 c 0,17,18
 930 677 930 677 910 689 c 128,-1,19
 890 701 890 701 857 740 c 2,20,-1
 612 1031 l 1,0,-1
EndSplineSet
EndChar

StartChar: underscore
Encoding: 95 95 62
Width: 1229
Flags: W
LayerCount: 2
Fore
SplineSet
1182 -615 m 2,0,-1
 56 -615 l 2,1,2
 -18 -615 -18 -615 -49.5 -587 c 128,-1,3
 -81 -559 -81 -559 -81 -513 c 256,4,5
 -81 -467 -81 -467 -49.5 -438.5 c 128,-1,6
 -18 -410 -18 -410 56 -410 c 2,7,-1
 1182 -410 l 2,8,9
 1255 -410 1255 -410 1286.5 -438.5 c 128,-1,10
 1318 -467 1318 -467 1318 -513 c 0,11,12
 1318 -558 1318 -558 1287 -586.5 c 128,-1,13
 1256 -615 1256 -615 1182 -615 c 2,0,-1
EndSplineSet
EndChar

StartChar: grave
Encoding: 96 96 63
Width: 1229
Flags: W
LayerCount: 2
Fore
SplineSet
544 1340 m 2,0,-1
 769 1157 l 1,1,2
 810 1125 810 1125 810 1093 c 0,3,4
 810 1065 810 1065 790.5 1046 c 128,-1,5
 771 1027 771 1027 743 1027 c 0,6,7
 720 1027 720 1027 686 1054 c 2,8,-1
 460 1237 l 2,9,10
 420 1269 420 1269 420 1301 c 0,11,12
 420 1329 420 1329 439.5 1348 c 128,-1,13
 459 1367 459 1367 487 1367 c 0,14,15
 510 1367 510 1367 544 1340 c 2,0,-1
EndSplineSet
EndChar

StartChar: a
Encoding: 97 97 64
Width: 1229
Flags: W
LayerCount: 2
Fore
SplineSet
799 0 m 1,0,-1
 799 48 l 1,1,2
 722 7 722 7 629 -13.5 c 128,-1,3
 536 -34 536 -34 460 -34 c 0,4,5
 295 -34 295 -34 192 53.5 c 128,-1,6
 89 141 89 141 89 247 c 0,7,8
 89 376 89 376 220.5 486.5 c 128,-1,9
 352 597 352 597 584 597 c 0,10,11
 677 597 677 597 799 577 c 1,12,-1
 799 626 l 2,13,14
 799 672 799 672 759.5 701 c 128,-1,15
 720 730 720 730 609 730 c 0,16,17
 518 730 518 730 373 694 c 0,18,19
 319 681 319 681 289 681 c 0,20,21
 248 681 248 681 219.5 710.5 c 128,-1,22
 191 740 191 740 191 786 c 0,23,24
 191 812 191 812 201 831 c 128,-1,25
 211 850 211 850 229 861.5 c 128,-1,26
 247 873 247 873 304 889 c 0,27,28
 380 910 380 910 459 922.5 c 128,-1,29
 538 935 538 935 602 935 c 0,30,31
 793 935 793 935 898.5 852.5 c 128,-1,32
 1004 770 1004 770 1004 627 c 2,33,-1
 1004 205 l 1,34,-1
 1039 205 l 2,35,36
 1113 205 1113 205 1144.5 176.5 c 128,-1,37
 1176 148 1176 148 1176 102 c 0,38,39
 1176 57 1176 57 1144.5 28.5 c 128,-1,40
 1113 0 1113 0 1039 0 c 2,41,-1
 799 0 l 1,0,-1
799 367 m 1,42,43
 676 391 676 391 572 391 c 0,44,45
 447 391 447 391 357 330 c 0,46,47
 301 291 301 291 301 251 c 0,48,49
 301 222 301 222 328 204 c 0,50,51
 378 171 378 171 465 171 c 0,52,53
 539 171 539 171 632.5 200 c 128,-1,54
 726 229 726 229 799 279 c 1,55,-1
 799 367 l 1,42,43
EndSplineSet
EndChar

StartChar: b
Encoding: 98 98 65
Width: 1229
Flags: W
LayerCount: 2
Fore
SplineSet
356 1297 m 1,0,-1
 356 837 l 1,1,2
 431 886 431 886 508.5 910.5 c 128,-1,3
 586 935 586 935 665 935 c 0,4,5
 878 935 878 935 1026 788 c 128,-1,6
 1174 641 1174 641 1174 433 c 0,7,8
 1174 234 1174 234 1033 100.5 c 128,-1,9
 892 -33 892 -33 661 -33 c 0,10,11
 579 -33 579 -33 503 -12 c 128,-1,12
 427 9 427 9 356 50 c 1,13,-1
 356 0 l 1,14,-1
 116 0 l 2,15,16
 42 0 42 0 10.5 28.5 c 128,-1,17
 -21 57 -21 57 -21 103 c 0,18,19
 -21 148 -21 148 11 176.5 c 128,-1,20
 43 205 43 205 116 205 c 2,21,-1
 151 205 l 1,22,-1
 151 1092 l 1,23,-1
 116 1092 l 2,24,25
 42 1092 42 1092 10.5 1120.5 c 128,-1,26
 -21 1149 -21 1149 -21 1195 c 0,27,28
 -21 1240 -21 1240 10.5 1268.5 c 128,-1,29
 42 1297 42 1297 116 1297 c 2,30,-1
 356 1297 l 1,0,-1
969 427 m 0,31,32
 969 554 969 554 880 642 c 128,-1,33
 791 730 791 730 662 730 c 0,34,35
 534 730 534 730 445 642 c 128,-1,36
 356 554 356 554 356 430 c 0,37,38
 356 317 356 317 436 244.5 c 128,-1,39
 516 172 516 172 662 172 c 256,40,41
 808 172 808 172 888.5 244.5 c 128,-1,42
 969 317 969 317 969 427 c 0,31,32
EndSplineSet
EndChar

StartChar: c
Encoding: 99 99 66
Width: 1229
Flags: W
LayerCount: 2
Fore
SplineSet
934 871 m 1,0,1
 971 906 971 906 1010 906 c 0,2,3
 1054 906 1054 906 1082.5 874.5 c 128,-1,4
 1111 843 1111 843 1111 770 c 2,5,-1
 1111 638 l 2,6,7
 1111 564 1111 564 1082.5 533 c 128,-1,8
 1054 502 1054 502 1008 502 c 0,9,10
 966 502 966 502 937 526 c 0,11,12
 916 544 916 544 904 599.5 c 128,-1,13
 892 655 892 655 846 682 c 0,14,15
 765 730 765 730 639 730 c 0,16,17
 494 730 494 730 406.5 645 c 128,-1,18
 319 560 319 560 319 430 c 0,19,20
 319 310 319 310 403 240.5 c 128,-1,21
 487 171 487 171 682 171 c 0,22,23
 810 171 810 171 891 197 c 0,24,25
 939 213 939 213 982 251.5 c 128,-1,26
 1025 290 1025 290 1060 290 c 0,27,28
 1102 290 1102 290 1132.5 259 c 128,-1,29
 1163 228 1163 228 1163 186 c 0,30,31
 1163 118 1163 118 1070 57 c 0,32,33
 932 -34 932 -34 666 -34 c 0,34,35
 427 -34 427 -34 294 65 c 0,36,37
 114 198 114 198 114 429 c 0,38,39
 114 648 114 648 260 791.5 c 128,-1,40
 406 935 406 935 641 935 c 0,41,42
 726 935 726 935 799 919 c 128,-1,43
 872 903 872 903 934 871 c 1,0,1
EndSplineSet
EndChar

StartChar: d
Encoding: 100 100 67
Width: 1229
Flags: W
LayerCount: 2
Fore
SplineSet
1085 1297 m 1,0,-1
 1085 205 l 1,1,-1
 1120 205 l 2,2,3
 1193 205 1193 205 1225 176.5 c 128,-1,4
 1257 148 1257 148 1257 102 c 0,5,6
 1257 57 1257 57 1225.5 28.5 c 128,-1,7
 1194 0 1194 0 1120 0 c 2,8,-1
 880 0 l 1,9,-1
 880 50 l 1,10,11
 810 9 810 9 733.5 -12 c 128,-1,12
 657 -33 657 -33 575 -33 c 0,13,14
 344 -33 344 -33 203 100.5 c 128,-1,15
 62 234 62 234 62 433 c 0,16,17
 62 641 62 641 210 788 c 128,-1,18
 358 935 358 935 571 935 c 0,19,20
 651 935 651 935 728 910.5 c 128,-1,21
 805 886 805 886 880 837 c 1,22,-1
 880 1092 l 1,23,-1
 845 1092 l 2,24,25
 771 1092 771 1092 739.5 1120.5 c 128,-1,26
 708 1149 708 1149 708 1194 c 0,27,28
 708 1240 708 1240 739.5 1268.5 c 128,-1,29
 771 1297 771 1297 845 1297 c 2,30,-1
 1085 1297 l 1,0,-1
880 427 m 0,31,32
 880 554 880 554 791 642 c 128,-1,33
 702 730 702 730 573 730 c 0,34,35
 445 730 445 730 356 642 c 128,-1,36
 267 554 267 554 267 430 c 0,37,38
 267 317 267 317 347 244.5 c 128,-1,39
 427 172 427 172 573 172 c 0,40,41
 718 172 718 172 799 244.5 c 128,-1,42
 880 317 880 317 880 427 c 0,31,32
EndSplineSet
EndChar

StartChar: e
Encoding: 101 101 68
Width: 1229
Flags: W
LayerCount: 2
Fore
SplineSet
1129 350 m 1,0,-1
 288 350 l 1,1,2
 320 270 320 270 401.5 221 c 128,-1,3
 483 172 483 172 622 172 c 0,4,5
 736 172 736 172 925 221 c 0,6,7
 1003 241 1003 241 1033 241 c 0,8,9
 1074 241 1074 241 1102 212 c 128,-1,10
 1130 183 1130 183 1130 139 c 0,11,12
 1130 99 1130 99 1100 71 c 0,13,14
 1060 34 1060 34 905 0.5 c 128,-1,15
 750 -33 750 -33 607 -33 c 0,16,17
 361 -33 361 -33 213.5 106 c 128,-1,18
 66 245 66 245 66 448 c 0,19,20
 66 664 66 664 225.5 799.5 c 128,-1,21
 385 935 385 935 593 935 c 0,22,23
 718 935 718 935 822.5 891 c 128,-1,24
 927 847 927 847 978 796 c 0,25,26
 1050 722 1050 722 1097 613 c 0,27,28
 1129 537 1129 537 1129 437 c 2,29,-1
 1129 350 l 1,0,-1
902 555 m 1,30,31
 855 643 855 643 779 686.5 c 128,-1,32
 703 730 703 730 598 730 c 0,33,34
 494 730 494 730 418 686.5 c 128,-1,35
 342 643 342 643 294 555 c 1,36,-1
 902 555 l 1,30,31
EndSplineSet
EndChar

StartChar: f
Encoding: 102 102 69
Width: 1229
Flags: W
LayerCount: 2
Fore
SplineSet
613 703 m 1,0,-1
 613 205 l 1,1,-1
 905 205 l 2,2,3
 979 205 979 205 1010.5 176.5 c 128,-1,4
 1042 148 1042 148 1042 102 c 0,5,6
 1042 57 1042 57 1010.5 28.5 c 128,-1,7
 979 0 979 0 905 0 c 2,8,-1
 286 0 l 2,9,10
 212 0 212 0 180.5 28.5 c 128,-1,11
 149 57 149 57 149 103 c 0,12,13
 149 148 149 148 180.5 176.5 c 128,-1,14
 212 205 212 205 286 205 c 2,15,-1
 408 205 l 1,16,-1
 408 703 l 1,17,-1
 310 703 l 2,18,19
 236 703 236 703 204.5 731.5 c 128,-1,20
 173 760 173 760 173 806 c 0,21,22
 173 851 173 851 204.5 879.5 c 128,-1,23
 236 908 236 908 310 908 c 2,24,-1
 408 908 l 1,25,-1
 408 986 l 2,26,27
 408 1120 408 1120 508.5 1208.5 c 128,-1,28
 609 1297 609 1297 800 1297 c 0,29,30
 885 1297 885 1297 996.5 1281.5 c 128,-1,31
 1108 1266 1108 1266 1139.5 1238 c 128,-1,32
 1171 1210 1171 1210 1171 1166 c 0,33,34
 1171 1119 1171 1119 1143 1089.5 c 128,-1,35
 1115 1060 1115 1060 1074 1060 c 0,36,37
 1055 1060 1055 1060 1017 1067 c 0,38,39
 890 1092 890 1092 792 1092 c 0,40,41
 690 1092 690 1092 651.5 1061.5 c 128,-1,42
 613 1031 613 1031 613 986 c 2,43,-1
 613 908 l 1,44,-1
 929 908 l 2,45,46
 1003 908 1003 908 1034.5 879.5 c 128,-1,47
 1066 851 1066 851 1066 805 c 0,48,49
 1066 760 1066 760 1034.5 731.5 c 128,-1,50
 1003 703 1003 703 929 703 c 2,51,-1
 613 703 l 1,0,-1
EndSplineSet
EndChar

StartChar: g
Encoding: 103 103 70
Width: 1229
Flags: W
LayerCount: 2
Fore
SplineSet
840 847 m 1,0,-1
 840 908 l 1,1,-1
 1080 908 l 2,2,3
 1154 908 1154 908 1185.5 879.5 c 128,-1,4
 1217 851 1217 851 1217 805 c 0,5,6
 1217 760 1217 760 1185.5 731.5 c 128,-1,7
 1154 703 1154 703 1080 703 c 2,8,-1
 1045 703 l 1,9,-1
 1045 -43 l 2,10,11
 1045 -151 1045 -151 999.5 -231.5 c 128,-1,12
 954 -312 954 -312 860 -370 c 128,-1,13
 766 -428 766 -428 648 -428 c 2,14,-1
 416 -428 l 2,15,16
 342 -428 342 -428 310.5 -399.5 c 128,-1,17
 279 -371 279 -371 279 -326 c 0,18,19
 279 -280 279 -280 310.5 -251.5 c 128,-1,20
 342 -223 342 -223 416 -223 c 2,21,-1
 642 -223 l 2,22,23
 736 -223 736 -223 788 -172 c 128,-1,24
 840 -121 840 -121 840 -43 c 2,25,-1
 840 57 l 1,26,27
 772 13 772 13 701.5 -9 c 128,-1,28
 631 -31 631 -31 557 -31 c 0,29,30
 348 -31 348 -31 207 108.5 c 128,-1,31
 66 248 66 248 66 453 c 0,32,33
 66 659 66 659 207 798.5 c 128,-1,34
 348 938 348 938 557 938 c 0,35,36
 635 938 635 938 705.5 915.5 c 128,-1,37
 776 893 776 893 840 847 c 1,0,-1
839 454 m 0,38,39
 839 567 839 567 755.5 650 c 128,-1,40
 672 733 672 733 555 733 c 256,41,42
 438 733 438 733 354.5 650 c 128,-1,43
 271 567 271 567 271 454 c 0,44,45
 271 340 271 340 354.5 257.5 c 128,-1,46
 438 175 438 175 555 175 c 256,47,48
 672 175 672 175 755.5 257.5 c 128,-1,49
 839 340 839 340 839 454 c 0,38,39
EndSplineSet
EndChar

StartChar: h
Encoding: 104 104 71
Width: 1229
Flags: W
LayerCount: 2
Fore
SplineSet
403 1297 m 1,0,-1
 403 860 l 1,1,2
 467 898 467 898 532.5 916.5 c 128,-1,3
 598 935 598 935 665 935 c 0,4,5
 771 935 771 935 854 899 c 128,-1,6
 937 863 937 863 991.5 785.5 c 128,-1,7
 1046 708 1046 708 1046 590 c 2,8,-1
 1046 205 l 1,9,10
 1124 205 1124 205 1148 190 c 0,11,12
 1196 159 1196 159 1196 102 c 0,13,14
 1196 57 1196 57 1165 28.5 c 128,-1,15
 1134 0 1134 0 1060 0 c 2,16,-1
 826 0 l 2,17,18
 753 0 753 0 721.5 28.5 c 128,-1,19
 690 57 690 57 690 103 c 0,20,21
 690 159 690 159 738 190 c 0,22,23
 763 206 763 206 840 205 c 1,24,-1
 840 576 l 2,25,26
 840 655 840 655 804 687 c 0,27,28
 757 730 757 730 665 730 c 0,29,30
 597 730 597 730 544.5 703.5 c 128,-1,31
 492 677 492 677 403 589 c 1,32,-1
 403 205 l 1,33,34
 482 205 482 205 505 190 c 0,35,36
 554 159 554 159 554 102 c 0,37,38
 554 57 554 57 522.5 28.5 c 128,-1,39
 491 0 491 0 417 0 c 2,40,-1
 184 0 l 2,41,42
 110 0 110 0 78.5 28.5 c 128,-1,43
 47 57 47 57 47 103 c 0,44,45
 47 159 47 159 96 190 c 0,46,47
 120 206 120 206 198 205 c 1,48,-1
 198 1092 l 1,49,-1
 163 1092 l 2,50,51
 89 1092 89 1092 57.5 1120.5 c 128,-1,52
 26 1149 26 1149 26 1195 c 0,53,54
 26 1240 26 1240 57.5 1268.5 c 128,-1,55
 89 1297 89 1297 163 1297 c 2,56,-1
 403 1297 l 1,0,-1
EndSplineSet
EndChar

StartChar: i
Encoding: 105 105 72
Width: 1229
Flags: W
LayerCount: 2
Fore
SplineSet
688 1297 m 1,0,-1
 688 1080 l 1,1,-1
 444 1080 l 1,2,-1
 444 1297 l 1,3,-1
 688 1297 l 1,0,-1
716 908 m 1,4,-1
 716 205 l 1,5,-1
 962 205 l 2,6,7
 1036 205 1036 205 1067.5 176.5 c 128,-1,8
 1099 148 1099 148 1099 102 c 0,9,10
 1099 57 1099 57 1067.5 28.5 c 128,-1,11
 1036 0 1036 0 962 0 c 2,12,-1
 265 0 l 2,13,14
 191 0 191 0 159.5 28.5 c 128,-1,15
 128 57 128 57 128 103 c 0,16,17
 128 148 128 148 159.5 176.5 c 128,-1,18
 191 205 191 205 265 205 c 2,19,-1
 511 205 l 1,20,-1
 511 703 l 1,21,-1
 346 703 l 2,22,23
 273 703 273 703 241 731.5 c 128,-1,24
 209 760 209 760 209 806 c 0,25,26
 209 851 209 851 240.5 879.5 c 128,-1,27
 272 908 272 908 346 908 c 2,28,-1
 716 908 l 1,4,-1
EndSplineSet
EndChar

StartChar: j
Encoding: 106 106 73
Width: 1229
Flags: W
LayerCount: 2
Fore
SplineSet
821 1297 m 1,0,-1
 821 1080 l 1,1,-1
 576 1080 l 1,2,-1
 576 1297 l 1,3,-1
 821 1297 l 1,0,-1
737 703 m 1,4,-1
 319 703 l 2,5,6
 245 703 245 703 213.5 731.5 c 128,-1,7
 182 760 182 760 182 806 c 0,8,9
 182 851 182 851 213.5 879.5 c 128,-1,10
 245 908 245 908 319 908 c 2,11,-1
 942 908 l 1,12,-1
 942 -43 l 2,13,14
 942 -151 942 -151 896.5 -231.5 c 128,-1,15
 851 -312 851 -312 757 -370 c 128,-1,16
 663 -428 663 -428 545 -428 c 2,17,-1
 313 -428 l 2,18,19
 239 -428 239 -428 207.5 -399.5 c 128,-1,20
 176 -371 176 -371 176 -326 c 0,21,22
 176 -280 176 -280 207.5 -251.5 c 128,-1,23
 239 -223 239 -223 313 -223 c 2,24,-1
 539 -223 l 2,25,26
 633 -223 633 -223 685 -172 c 128,-1,27
 737 -121 737 -121 737 -43 c 2,28,-1
 737 703 l 1,4,-1
EndSplineSet
EndChar

StartChar: k
Encoding: 107 107 74
Width: 1229
Flags: W
LayerCount: 2
Fore
SplineSet
446 341 m 1,0,-1
 446 0 l 1,1,-1
 206 0 l 2,2,3
 132 0 132 0 100.5 28.5 c 128,-1,4
 69 57 69 57 69 103 c 0,5,6
 69 148 69 148 101 176.5 c 128,-1,7
 133 205 133 205 206 205 c 2,8,-1
 241 205 l 1,9,-1
 241 1092 l 1,10,-1
 206 1092 l 2,11,12
 132 1092 132 1092 100.5 1120.5 c 128,-1,13
 69 1149 69 1149 69 1195 c 0,14,15
 69 1240 69 1240 100.5 1268.5 c 128,-1,16
 132 1297 132 1297 206 1297 c 2,17,-1
 446 1297 l 1,18,-1
 446 606 l 1,19,-1
 606 735 l 1,20,21
 581 778 581 778 581 805 c 0,22,23
 581 851 581 851 612 879.5 c 128,-1,24
 643 908 643 908 717 908 c 2,25,-1
 951 908 l 2,26,27
 1025 908 1025 908 1056.5 879.5 c 128,-1,28
 1088 851 1088 851 1088 805 c 0,29,30
 1088 760 1088 760 1056.5 731.5 c 128,-1,31
 1025 703 1025 703 951 703 c 2,32,-1
 894 703 l 1,33,-1
 645 501 l 1,34,-1
 980 205 l 1,35,-1
 1040 205 l 2,36,37
 1114 205 1114 205 1145.5 176.5 c 128,-1,38
 1177 148 1177 148 1177 102 c 0,39,40
 1177 57 1177 57 1145.5 28.5 c 128,-1,41
 1114 0 1114 0 1040 0 c 2,42,-1
 804 0 l 2,43,44
 730 0 730 0 698.5 28.5 c 128,-1,45
 667 57 667 57 667 103 c 0,46,47
 667 142 667 142 701 180 c 1,48,-1
 484 372 l 1,49,-1
 446 341 l 1,0,-1
EndSplineSet
EndChar

StartChar: l
Encoding: 108 108 75
Width: 1229
Flags: W
LayerCount: 2
Fore
SplineSet
717 1297 m 1,0,-1
 717 205 l 1,1,-1
 963 205 l 2,2,3
 1037 205 1037 205 1068.5 176.5 c 128,-1,4
 1100 148 1100 148 1100 102 c 0,5,6
 1100 57 1100 57 1068.5 28.5 c 128,-1,7
 1037 0 1037 0 963 0 c 2,8,-1
 266 0 l 2,9,10
 192 0 192 0 160.5 28.5 c 128,-1,11
 129 57 129 57 129 103 c 0,12,13
 129 148 129 148 160.5 176.5 c 128,-1,14
 192 205 192 205 266 205 c 2,15,-1
 512 205 l 1,16,-1
 512 1092 l 1,17,-1
 347 1092 l 2,18,19
 274 1092 274 1092 242 1120.5 c 128,-1,20
 210 1149 210 1149 210 1195 c 0,21,22
 210 1240 210 1240 241.5 1268.5 c 128,-1,23
 273 1297 273 1297 347 1297 c 2,24,-1
 717 1297 l 1,0,-1
EndSplineSet
EndChar

StartChar: m
Encoding: 109 109 76
Width: 1229
Flags: W
LayerCount: 2
Fore
SplineSet
298 908 m 1,0,-1
 298 850 l 1,1,2
 348 899 348 899 388.5 917.5 c 128,-1,3
 429 936 429 936 482 936 c 0,4,5
 527 936 527 936 571 914 c 128,-1,6
 615 892 615 892 657 848 c 1,7,8
 710 892 710 892 764.5 913.5 c 128,-1,9
 819 935 819 935 876 935 c 0,10,11
 990 935 990 935 1061 874 c 0,12,13
 1155 794 1155 794 1155 664 c 2,14,-1
 1155 205 l 1,15,16
 1219 205 1219 205 1250 176 c 128,-1,17
 1281 147 1281 147 1281 102 c 256,18,19
 1281 57 1281 57 1250 28.5 c 128,-1,20
 1219 0 1219 0 1145 0 c 2,21,-1
 950 0 l 1,22,-1
 950 647 l 2,23,24
 950 694 950 694 933 712 c 128,-1,25
 916 730 916 730 881 730 c 0,26,27
 847 730 847 730 818 712 c 1,28,29
 781 687 781 687 728 618 c 1,30,-1
 728 205 l 1,31,32
 792 205 792 205 823 176 c 128,-1,33
 854 147 854 147 854 102 c 256,34,35
 854 57 854 57 823 28.5 c 128,-1,36
 792 0 792 0 718 0 c 2,37,-1
 523 0 l 1,38,-1
 523 647 l 2,39,40
 523 693 523 693 505.5 711.5 c 128,-1,41
 488 730 488 730 453 730 c 0,42,43
 417 730 417 730 382 707.5 c 128,-1,44
 347 685 347 685 298 618 c 1,45,-1
 298 205 l 1,46,47
 362 205 362 205 393.5 176 c 128,-1,48
 425 147 425 147 425 102 c 256,49,50
 425 57 425 57 393.5 28.5 c 128,-1,51
 362 0 362 0 288 0 c 2,52,-1
 103 0 l 2,53,54
 29 0 29 0 -2.5 28.5 c 128,-1,55
 -34 57 -34 57 -34 103 c 0,56,57
 -34 148 -34 148 -3 176.5 c 128,-1,58
 28 205 28 205 93 205 c 1,59,-1
 93 703 l 1,60,61
 28 703 28 703 -3 732 c 128,-1,62
 -34 761 -34 761 -34 806 c 256,63,64
 -34 851 -34 851 -2.5 879.5 c 128,-1,65
 29 908 29 908 103 908 c 2,66,-1
 298 908 l 1,0,-1
EndSplineSet
EndChar

StartChar: n
Encoding: 110 110 77
Width: 1229
Flags: W
LayerCount: 2
Fore
SplineSet
407 908 m 1,0,-1
 407 839 l 1,1,2
 463 887 463 887 530.5 911 c 128,-1,3
 598 935 598 935 677 935 c 0,4,5
 859 935 859 935 965 822 c 0,6,7
 1049 732 1049 732 1049 586 c 2,8,-1
 1049 205 l 1,9,10
 1114 205 1114 205 1145 176.5 c 128,-1,11
 1176 148 1176 148 1176 102 c 0,12,13
 1176 57 1176 57 1144.5 28.5 c 128,-1,14
 1113 0 1113 0 1039 0 c 2,15,-1
 854 0 l 2,16,17
 780 0 780 0 748.5 28.5 c 128,-1,18
 717 57 717 57 717 103 c 0,19,20
 717 148 717 148 748 176.5 c 128,-1,21
 779 205 779 205 844 205 c 1,22,-1
 844 592 l 2,23,24
 844 659 844 659 808 690 c 0,25,26
 761 730 761 730 667 730 c 0,27,28
 596 730 596 730 542.5 702.5 c 128,-1,29
 489 675 489 675 407 586 c 1,30,-1
 407 205 l 1,31,32
 486 205 486 205 509 190 c 0,33,34
 558 160 558 160 558 102 c 0,35,36
 558 57 558 57 526.5 28.5 c 128,-1,37
 495 0 495 0 421 0 c 2,38,-1
 188 0 l 2,39,40
 114 0 114 0 82.5 28.5 c 128,-1,41
 51 57 51 57 51 103 c 0,42,43
 51 159 51 159 99 190 c 0,44,45
 123 205 123 205 202 205 c 1,46,-1
 202 703 l 1,47,48
 137 703 137 703 106 732 c 128,-1,49
 75 761 75 761 75 806 c 256,50,51
 75 851 75 851 106.5 879.5 c 128,-1,52
 138 908 138 908 212 908 c 2,53,-1
 407 908 l 1,0,-1
EndSplineSet
EndChar

StartChar: o
Encoding: 111 111 78
Width: 1229
Flags: W
LayerCount: 2
Fore
SplineSet
1147 437 m 0,0,1
 1147 319 1147 319 1081.5 208.5 c 128,-1,2
 1016 98 1016 98 886.5 32.5 c 128,-1,3
 757 -33 757 -33 616 -33 c 0,4,5
 476 -33 476 -33 348 31.5 c 128,-1,6
 220 96 220 96 153 207 c 128,-1,7
 86 318 86 318 86 439 c 0,8,9
 86 562 86 562 154 680.5 c 128,-1,10
 222 799 222 799 349.5 867 c 128,-1,11
 477 935 477 935 616 935 c 0,12,13
 756 935 756 935 885.5 865.5 c 128,-1,14
 1015 796 1015 796 1081 678.5 c 128,-1,15
 1147 561 1147 561 1147 437 c 0,0,1
942 436 m 0,16,17
 942 535 942 535 871 618 c 0,18,19
 774 730 774 730 616 730 c 0,20,21
 477 730 477 730 384 641 c 128,-1,22
 291 552 291 552 291 435 c 0,23,24
 291 339 291 339 385 255.5 c 128,-1,25
 479 172 479 172 616 172 c 0,26,27
 754 172 754 172 848 255.5 c 128,-1,28
 942 339 942 339 942 436 c 0,16,17
EndSplineSet
EndChar

StartChar: p
Encoding: 112 112 79
Width: 1229
Flags: W
LayerCount: 2
Fore
SplineSet
360 113 m 1,0,-1
 360 -223 l 1,1,-1
 483 -223 l 2,2,3
 557 -223 557 -223 588.5 -251.5 c 128,-1,4
 620 -280 620 -280 620 -326 c 0,5,6
 620 -371 620 -371 588.5 -399.5 c 128,-1,7
 557 -428 557 -428 483 -428 c 2,8,-1
 120 -428 l 2,9,10
 46 -428 46 -428 14.5 -399.5 c 128,-1,11
 -17 -371 -17 -371 -17 -326 c 0,12,13
 -17 -280 -17 -280 15 -251.5 c 128,-1,14
 47 -223 47 -223 120 -223 c 2,15,-1
 155 -223 l 1,16,-1
 155 703 l 1,17,-1
 120 703 l 2,18,19
 46 703 46 703 14.5 731.5 c 128,-1,20
 -17 760 -17 760 -17 806 c 0,21,22
 -17 851 -17 851 14.5 879.5 c 128,-1,23
 46 908 46 908 120 908 c 2,24,-1
 360 908 l 1,25,-1
 360 838 l 1,26,27
 432 887 432 887 509 911 c 128,-1,28
 586 935 586 935 667 935 c 0,29,30
 877 935 877 935 1025 792.5 c 128,-1,31
 1173 650 1173 650 1173 466 c 0,32,33
 1173 263 1173 263 998 131 c 0,34,35
 852 21 852 21 669 21 c 0,36,37
 590 21 590 21 513 44 c 128,-1,38
 436 67 436 67 360 113 c 1,0,-1
968 465 m 0,39,40
 968 508 968 508 934 574.5 c 128,-1,41
 900 641 900 641 829.5 685.5 c 128,-1,42
 759 730 759 730 664 730 c 0,43,44
 511 730 511 730 421 615 c 0,45,46
 360 536 360 536 360 463 c 0,47,48
 360 381 360 381 447.5 303.5 c 128,-1,49
 535 226 535 226 664 226 c 0,50,51
 794 226 794 226 881 303 c 128,-1,52
 968 380 968 380 968 465 c 0,39,40
EndSplineSet
EndChar

StartChar: q
Encoding: 113 113 80
Width: 1229
Flags: W
LayerCount: 2
Fore
SplineSet
1090 703 m 1,0,-1
 1090 -223 l 1,1,-1
 1126 -223 l 2,2,3
 1199 -223 1199 -223 1230.5 -251.5 c 128,-1,4
 1262 -280 1262 -280 1262 -326 c 0,5,6
 1262 -371 1262 -371 1231 -399.5 c 128,-1,7
 1200 -428 1200 -428 1126 -428 c 2,8,-1
 763 -428 l 2,9,10
 689 -428 689 -428 657.5 -399.5 c 128,-1,11
 626 -371 626 -371 626 -326 c 0,12,13
 626 -280 626 -280 657.5 -251.5 c 128,-1,14
 689 -223 689 -223 763 -223 c 2,15,-1
 885 -223 l 1,16,-1
 885 113 l 1,17,18
 810 67 810 67 732.5 44 c 128,-1,19
 655 21 655 21 576 21 c 0,20,21
 393 21 393 21 247 131 c 0,22,23
 72 263 72 263 72 466 c 0,24,25
 72 650 72 650 220 792.5 c 128,-1,26
 368 935 368 935 579 935 c 0,27,28
 660 935 660 935 736.5 911 c 128,-1,29
 813 887 813 887 885 838 c 1,30,-1
 885 908 l 1,31,-1
 1126 908 l 2,32,33
 1199 908 1199 908 1230.5 879.5 c 128,-1,34
 1262 851 1262 851 1262 805 c 0,35,36
 1262 760 1262 760 1231 731.5 c 128,-1,37
 1200 703 1200 703 1126 703 c 2,38,-1
 1090 703 l 1,0,-1
885 465 m 0,39,40
 885 508 885 508 851 574.5 c 128,-1,41
 817 641 817 641 746 685.5 c 128,-1,42
 675 730 675 730 581 730 c 0,43,44
 427 730 427 730 338 615 c 0,45,46
 277 536 277 536 277 463 c 0,47,48
 277 380 277 380 364.5 303 c 128,-1,49
 452 226 452 226 581 226 c 0,50,51
 711 226 711 226 798 303 c 128,-1,52
 885 380 885 380 885 465 c 0,39,40
EndSplineSet
EndChar

StartChar: r
Encoding: 114 114 81
Width: 1229
Flags: W
LayerCount: 2
Fore
SplineSet
572 908 m 1,0,-1
 572 780 l 1,1,2
 701 873 701 873 775.5 904 c 128,-1,3
 850 935 850 935 915 935 c 0,4,5
 1015 935 1015 935 1109 861 c 0,6,7
 1173 811 1173 811 1173 759 c 0,8,9
 1173 715 1173 715 1142.5 684.5 c 128,-1,10
 1112 654 1112 654 1069 654 c 0,11,12
 1031 654 1031 654 989 692 c 128,-1,13
 947 730 947 730 914 730 c 0,14,15
 871 730 871 730 785.5 676 c 128,-1,16
 700 622 700 622 572 514 c 1,17,-1
 572 205 l 1,18,-1
 864 205 l 2,19,20
 938 205 938 205 969.5 176.5 c 128,-1,21
 1001 148 1001 148 1001 102 c 0,22,23
 1001 57 1001 57 969.5 28.5 c 128,-1,24
 938 0 938 0 864 0 c 2,25,-1
 245 0 l 2,26,27
 171 0 171 0 139.5 28.5 c 128,-1,28
 108 57 108 57 108 103 c 0,29,30
 108 148 108 148 139.5 176.5 c 128,-1,31
 171 205 171 205 245 205 c 2,32,-1
 367 205 l 1,33,-1
 367 703 l 1,34,-1
 293 703 l 2,35,36
 219 703 219 703 187.5 731.5 c 128,-1,37
 156 760 156 760 156 806 c 0,38,39
 156 851 156 851 187.5 879.5 c 128,-1,40
 219 908 219 908 293 908 c 2,41,-1
 572 908 l 1,0,-1
EndSplineSet
EndChar

StartChar: s
Encoding: 115 115 82
Width: 1229
Flags: W
LayerCount: 2
Fore
SplineSet
836 668 m 1,0,1
 786 699 786 699 731 714.5 c 128,-1,2
 676 730 676 730 616 730 c 0,3,4
 497 730 497 730 427 691 c 0,5,6
 396 674 396 674 396 654 c 0,7,8
 396 631 396 631 438 609 c 0,9,10
 470 593 470 593 581 578 c 0,11,12
 785 550 785 550 865 522 c 0,13,14
 970 485 970 485 1027 412 c 128,-1,15
 1084 339 1084 339 1084 258 c 0,16,17
 1084 148 1084 148 987 74 c 0,18,19
 848 -33 848 -33 626 -33 c 0,20,21
 537 -33 537 -33 461.5 -17.5 c 128,-1,22
 386 -2 386 -2 323 28 c 1,23,24
 308 15 308 15 291 8 c 128,-1,25
 274 1 274 1 256 1 c 0,26,27
 208 1 208 1 179.5 32.5 c 128,-1,28
 151 64 151 64 151 138 c 2,29,-1
 151 207 l 2,30,31
 151 281 151 281 179.5 312.5 c 128,-1,32
 208 344 208 344 254 344 c 0,33,34
 291 344 291 344 316 323.5 c 128,-1,35
 341 303 341 303 355 253 c 1,36,37
 402 213 402 213 468 192.5 c 128,-1,38
 534 172 534 172 620 172 c 0,39,40
 761 172 761 172 839 216 c 0,41,42
 876 238 876 238 876 262 c 0,43,44
 876 302 876 302 823 328 c 256,45,46
 770 354 770 354 604 372 c 0,47,48
 357 398 357 398 274 472 c 0,49,50
 191 545 191 545 191 652 c 0,51,52
 191 762 191 762 284 835 c 0,53,54
 410 935 410 935 614 935 c 0,55,56
 685 935 685 935 750.5 921.5 c 128,-1,57
 816 908 816 908 876 880 c 1,58,59
 895 894 895 894 911.5 901 c 128,-1,60
 928 908 928 908 942 908 c 0,61,62
 984 908 984 908 1012 876.5 c 128,-1,63
 1040 845 1040 845 1040 771 c 2,64,-1
 1040 721 l 2,65,66
 1040 654 1040 654 1024 630 c 0,67,68
 992 584 992 584 937 584 c 0,69,70
 900 584 900 584 872 607 c 128,-1,71
 844 630 844 630 836 668 c 1,0,1
EndSplineSet
EndChar

StartChar: t
Encoding: 116 116 83
Width: 1229
Flags: W
LayerCount: 2
Fore
SplineSet
564 703 m 1,0,-1
 564 292 l 2,1,2
 564 226 564 226 591 205 c 0,3,4
 633 172 633 172 741 172 c 0,5,6
 898 172 898 172 1031 239 c 0,7,8
 1082 265 1082 265 1111 265 c 0,9,10
 1151 265 1151 265 1180.5 235 c 128,-1,11
 1210 205 1210 205 1210 162 c 0,12,13
 1210 122 1210 122 1178 93 c 1,14,15
 1129 46 1129 46 984.5 6.5 c 128,-1,16
 840 -33 840 -33 741 -33 c 0,17,18
 550 -33 550 -33 454.5 49.5 c 128,-1,19
 359 132 359 132 359 252 c 2,20,-1
 359 703 l 1,21,-1
 285 703 l 2,22,23
 211 703 211 703 179.5 731.5 c 128,-1,24
 148 760 148 760 148 806 c 0,25,26
 148 851 148 851 179.5 879.5 c 128,-1,27
 211 908 211 908 285 908 c 2,28,-1
 359 908 l 1,29,-1
 359 1093 l 2,30,31
 359 1167 359 1167 387.5 1198.5 c 128,-1,32
 416 1230 416 1230 462 1230 c 0,33,34
 507 1230 507 1230 535.5 1198.5 c 128,-1,35
 564 1167 564 1167 564 1093 c 2,36,-1
 564 908 l 1,37,-1
 943 908 l 2,38,39
 1017 908 1017 908 1048.5 879.5 c 128,-1,40
 1080 851 1080 851 1080 805 c 0,41,42
 1080 760 1080 760 1048.5 731.5 c 128,-1,43
 1017 703 1017 703 943 703 c 2,44,-1
 564 703 l 1,0,-1
EndSplineSet
EndChar

StartChar: u
Encoding: 117 117 84
Width: 1229
Flags: W
LayerCount: 2
Fore
SplineSet
1050 908 m 1,0,-1
 1050 205 l 1,1,2
 1115 205 1115 205 1146 176 c 128,-1,3
 1177 147 1177 147 1177 102 c 256,4,5
 1177 57 1177 57 1145.5 28.5 c 128,-1,6
 1114 0 1114 0 1040 0 c 2,7,-1
 845 0 l 1,8,-1
 845 47 l 1,9,10
 757 7 757 7 677 -13 c 128,-1,11
 597 -33 597 -33 525 -33 c 0,12,13
 424 -33 424 -33 350 9.5 c 128,-1,14
 276 52 276 52 233 127 c 0,15,16
 202 181 202 181 202 262 c 2,17,-1
 202 703 l 1,18,-1
 167 703 l 2,19,20
 93 703 93 703 61.5 731.5 c 128,-1,21
 30 760 30 760 30 806 c 0,22,23
 30 851 30 851 61.5 879.5 c 128,-1,24
 93 908 93 908 167 908 c 2,25,-1
 407 908 l 1,26,-1
 407 298 l 2,27,28
 407 233 407 233 438.5 202.5 c 128,-1,29
 470 172 470 172 535 172 c 0,30,31
 597 172 597 172 668.5 196.5 c 128,-1,32
 740 221 740 221 845 285 c 1,33,-1
 845 703 l 1,34,-1
 771 703 l 2,35,36
 697 703 697 703 665.5 731.5 c 128,-1,37
 634 760 634 760 634 806 c 0,38,39
 634 851 634 851 665.5 879.5 c 128,-1,40
 697 908 697 908 771 908 c 2,41,-1
 1050 908 l 1,0,-1
EndSplineSet
EndChar

StartChar: v
Encoding: 118 118 85
Width: 1229
Flags: W
LayerCount: 2
Fore
SplineSet
616 249 m 1,0,-1
 837 703 l 1,1,2
 755 703 755 703 732 717 c 0,3,4
 682 748 682 748 682 806 c 0,5,6
 682 851 682 851 713.5 879.5 c 128,-1,7
 745 908 745 908 819 908 c 2,8,-1
 1100 908 l 2,9,10
 1174 908 1174 908 1205.5 879.5 c 128,-1,11
 1237 851 1237 851 1237 805 c 0,12,13
 1237 760 1237 760 1205.5 731.5 c 128,-1,14
 1174 703 1174 703 1100 703 c 2,15,-1
 1066 703 l 1,16,-1
 723 0 l 1,17,-1
 509 0 l 1,18,-1
 166 703 l 1,19,-1
 137 703 l 2,20,21
 63 703 63 703 31.5 731.5 c 128,-1,22
 0 760 0 760 0 806 c 0,23,24
 0 851 0 851 31.5 879.5 c 128,-1,25
 63 908 63 908 137 908 c 2,26,-1
 412 908 l 2,27,28
 485 908 485 908 516.5 879.5 c 128,-1,29
 548 851 548 851 548 805 c 0,30,31
 548 748 548 748 500 718 c 0,32,33
 476 703 476 703 393 703 c 1,34,-1
 616 249 l 1,0,-1
EndSplineSet
EndChar

StartChar: w
Encoding: 119 119 86
Width: 1229
Flags: W
LayerCount: 2
Fore
SplineSet
616 378 m 1,0,-1
 474 0 l 1,1,-1
 281 0 l 1,2,-1
 109 703 l 1,3,4
 53 706 53 706 24.5 734.5 c 128,-1,5
 -4 763 -4 763 -4 806 c 0,6,7
 -4 851 -4 851 27.5 879.5 c 128,-1,8
 59 908 59 908 133 908 c 2,9,-1
 324 908 l 2,10,11
 398 908 398 908 429.5 879.5 c 128,-1,12
 461 851 461 851 461 805 c 256,13,14
 461 759 461 759 425 727 c 0,15,16
 398 703 398 703 319 703 c 1,17,-1
 397 378 l 1,18,-1
 524 711 l 1,19,-1
 706 711 l 1,20,-1
 834 378 l 1,21,-1
 914 703 l 1,22,23
 838 703 838 703 814 718 c 0,24,25
 766 749 766 749 766 806 c 0,26,27
 766 851 766 851 797.5 879.5 c 128,-1,28
 829 908 829 908 903 908 c 2,29,-1
 1096 908 l 2,30,31
 1170 908 1170 908 1201.5 879.5 c 128,-1,32
 1233 851 1233 851 1233 805 c 0,33,34
 1233 764 1233 764 1205.5 735.5 c 128,-1,35
 1178 707 1178 707 1124 703 c 1,36,-1
 956 0 l 1,37,-1
 766 0 l 1,38,-1
 616 378 l 1,0,-1
EndSplineSet
EndChar

StartChar: x
Encoding: 120 120 87
Width: 1229
Flags: W
LayerCount: 2
Fore
SplineSet
768 472 m 1,0,-1
 1079 205 l 1,1,2
 1135 202 1135 202 1163 173.5 c 128,-1,3
 1191 145 1191 145 1191 102 c 0,4,5
 1191 57 1191 57 1159.5 28.5 c 128,-1,6
 1128 0 1128 0 1054 0 c 2,7,-1
 821 0 l 2,8,9
 747 0 747 0 715.5 28.5 c 128,-1,10
 684 57 684 57 684 104 c 0,11,12
 684 140 684 140 706.5 167.5 c 128,-1,13
 729 195 729 195 768 205 c 1,14,-1
 615 337 l 1,15,-1
 459 205 l 1,16,17
 506 193 506 193 526.5 168 c 128,-1,18
 547 143 547 143 547 104 c 0,19,20
 547 57 547 57 516 28.5 c 128,-1,21
 485 0 485 0 411 0 c 2,22,-1
 180 0 l 2,23,24
 106 0 106 0 74.5 28.5 c 128,-1,25
 43 57 43 57 43 103 c 0,26,27
 43 145 43 145 71 173.5 c 128,-1,28
 99 202 99 202 155 205 c 1,29,-1
 459 473 l 1,30,-1
 190 703 l 1,31,32
 137 707 137 707 109.5 735.5 c 128,-1,33
 82 764 82 764 82 806 c 0,34,35
 82 851 82 851 113.5 879.5 c 128,-1,36
 145 908 145 908 219 908 c 2,37,-1
 411 908 l 2,38,39
 485 908 485 908 516.5 879.5 c 128,-1,40
 548 851 548 851 548 807 c 0,41,42
 548 748 548 748 492 711 c 1,43,-1
 616 608 l 1,44,-1
 738 713 l 1,45,46
 683 752 683 752 683 803 c 0,47,48
 683 851 683 851 714.5 879.5 c 128,-1,49
 746 908 746 908 820 908 c 2,50,-1
 1010 908 l 2,51,52
 1084 908 1084 908 1115.5 879.5 c 128,-1,53
 1147 851 1147 851 1147 805 c 0,54,55
 1147 764 1147 764 1119.5 735.5 c 128,-1,56
 1092 707 1092 707 1038 703 c 1,57,-1
 768 472 l 1,0,-1
EndSplineSet
EndChar

StartChar: y
Encoding: 121 121 88
Width: 1229
Flags: W
LayerCount: 2
Fore
SplineSet
500 7 m 1,0,-1
 145 703 l 1,1,2
 95 709 95 709 69 737 c 128,-1,3
 43 765 43 765 43 805 c 0,4,5
 43 851 43 851 74.5 879.5 c 128,-1,6
 106 908 106 908 180 908 c 2,7,-1
 367 908 l 2,8,9
 441 908 441 908 472.5 879.5 c 128,-1,10
 504 851 504 851 504 805 c 0,11,12
 504 760 504 760 472.5 731.5 c 128,-1,13
 441 703 441 703 373 703 c 1,14,-1
 615 232 l 1,15,-1
 855 703 l 1,16,17
 789 703 789 703 757.5 731.5 c 128,-1,18
 726 760 726 760 726 806 c 0,19,20
 726 851 726 851 757.5 879.5 c 128,-1,21
 789 908 789 908 863 908 c 2,22,-1
 1056 908 l 2,23,24
 1129 908 1129 908 1160.5 879.5 c 128,-1,25
 1192 851 1192 851 1192 805 c 0,26,27
 1192 764 1192 764 1165 735.5 c 128,-1,28
 1138 707 1138 707 1085 703 c 1,29,-1
 615 -223 l 1,30,31
 692 -223 692 -223 716 -238 c 0,32,33
 764 -269 764 -269 764 -326 c 0,34,35
 764 -371 764 -371 732.5 -399.5 c 128,-1,36
 701 -428 701 -428 627 -428 c 2,37,-1
 180 -428 l 2,38,39
 106 -428 106 -428 74.5 -399.5 c 128,-1,40
 43 -371 43 -371 43 -326 c 0,41,42
 43 -280 43 -280 74.5 -251.5 c 128,-1,43
 106 -223 106 -223 180 -223 c 2,44,-1
 384 -223 l 1,45,-1
 500 7 l 1,0,-1
EndSplineSet
EndChar

StartChar: z
Encoding: 122 122 89
Width: 1229
Flags: W
LayerCount: 2
Fore
SplineSet
504 205 m 1,0,-1
 864 205 l 1,1,2
 867 262 867 262 895.5 290.5 c 128,-1,3
 924 319 924 319 966 319 c 0,4,5
 1012 319 1012 319 1040.5 287.5 c 128,-1,6
 1069 256 1069 256 1069 182 c 2,7,-1
 1069 0 l 1,8,-1
 177 0 l 1,9,-1
 177 170 l 1,10,-1
 717 703 l 1,11,-1
 403 703 l 1,12,-1
 403 683 l 2,13,14
 403 610 403 610 374.5 578.5 c 128,-1,15
 346 547 346 547 300 547 c 256,16,17
 254 547 254 547 225.5 578.5 c 128,-1,18
 197 610 197 610 197 683 c 2,19,-1
 198 908 l 1,20,-1
 1046 908 l 1,21,-1
 1046 740 l 1,22,-1
 504 205 l 1,0,-1
EndSplineSet
EndChar

StartChar: braceleft
Encoding: 123 123 90
Width: 1229
Flags: W
LayerCount: 2
Fore
SplineSet
656 497 m 1,0,1
 692 456 692 456 705 417.5 c 128,-1,2
 718 379 718 379 718 293 c 2,3,-1
 718 -33 l 2,4,5
 718 -74 718 -74 733.5 -91.5 c 128,-1,6
 749 -109 749 -109 791 -112.5 c 128,-1,7
 833 -116 833 -116 860 -145 c 128,-1,8
 887 -174 887 -174 887 -216 c 0,9,10
 887 -260 887 -260 856.5 -290 c 128,-1,11
 826 -320 826 -320 779 -320 c 0,12,13
 712 -320 712 -320 650 -284.5 c 128,-1,14
 588 -249 588 -249 542 -169 c 0,15,16
 513 -117 513 -117 513 -48 c 2,17,-1
 513 313 l 2,18,19
 513 356 513 356 499 372 c 128,-1,20
 485 388 485 388 439 393.5 c 128,-1,21
 393 399 393 399 368.5 426 c 128,-1,22
 344 453 344 453 344 497 c 0,23,24
 344 542 344 542 368.5 569 c 128,-1,25
 393 596 393 596 439.5 601.5 c 128,-1,26
 486 607 486 607 496 620 c 0,27,28
 513 640 513 640 513 682 c 2,29,-1
 513 1024 l 2,30,31
 513 1134 513 1134 593 1214.5 c 128,-1,32
 673 1295 673 1295 778 1295 c 0,33,34
 826 1295 826 1295 856.5 1265 c 128,-1,35
 887 1235 887 1235 887 1191 c 0,36,37
 887 1150 887 1150 860 1121 c 128,-1,38
 833 1092 833 1092 790 1088 c 128,-1,39
 747 1084 747 1084 736 1070 c 0,40,41
 718 1049 718 1049 718 1008 c 2,42,-1
 718 682 l 2,43,44
 718 613 718 613 704.5 575.5 c 128,-1,45
 691 538 691 538 656 497 c 1,0,1
EndSplineSet
EndChar

StartChar: bar
Encoding: 124 124 91
Width: 1229
Flags: W
LayerCount: 2
Fore
SplineSet
718 1097 m 2,0,-1
 718 -123 l 2,1,2
 718 -228 718 -228 713 -248 c 0,3,4
 705 -278 705 -278 677.5 -299 c 128,-1,5
 650 -320 650 -320 616 -320 c 0,6,7
 581 -320 581 -320 553.5 -299 c 128,-1,8
 526 -278 526 -278 518 -246 c 0,9,10
 513 -228 513 -228 513 -123 c 2,11,-1
 513 1097 l 2,12,13
 513 1202 513 1202 518 1222 c 0,14,15
 526 1252 526 1252 553.5 1273 c 128,-1,16
 581 1294 581 1294 616 1294 c 0,17,18
 650 1294 650 1294 677.5 1273 c 128,-1,19
 705 1252 705 1252 713 1221 c 0,20,21
 718 1201 718 1201 718 1097 c 2,0,-1
EndSplineSet
EndChar

StartChar: braceright
Encoding: 125 125 92
Width: 1229
Flags: W
LayerCount: 2
Fore
SplineSet
568 497 m 1,0,1
 533 538 533 538 519.5 576.5 c 128,-1,2
 506 615 506 615 506 682 c 2,3,-1
 506 1008 l 2,4,5
 506 1049 506 1049 490.5 1066.5 c 128,-1,6
 475 1084 475 1084 433 1088 c 128,-1,7
 391 1092 391 1092 364 1121 c 128,-1,8
 337 1150 337 1150 337 1191 c 0,9,10
 337 1235 337 1235 367.5 1265 c 128,-1,11
 398 1295 398 1295 445 1295 c 0,12,13
 512 1295 512 1295 574 1259.5 c 128,-1,14
 636 1224 636 1224 682 1144 c 0,15,16
 711 1092 711 1092 711 1024 c 2,17,-1
 711 682 l 2,18,19
 711 639 711 639 725 622.5 c 128,-1,20
 739 606 739 606 785 601 c 128,-1,21
 831 596 831 596 855.5 569 c 128,-1,22
 880 542 880 542 880 497 c 0,23,24
 880 453 880 453 855.5 426 c 128,-1,25
 831 399 831 399 784.5 393.5 c 128,-1,26
 738 388 738 388 728 375 c 0,27,28
 711 355 711 355 711 313 c 2,29,-1
 711 -48 l 2,30,31
 711 -159 711 -159 631 -239.5 c 128,-1,32
 551 -320 551 -320 446 -320 c 0,33,34
 398 -320 398 -320 367.5 -290 c 128,-1,35
 337 -260 337 -260 337 -216 c 0,36,37
 337 -175 337 -175 364 -146 c 128,-1,38
 391 -117 391 -117 434 -113 c 128,-1,39
 477 -109 477 -109 488 -95 c 0,40,41
 506 -74 506 -74 506 -33 c 2,42,-1
 506 293 l 2,43,44
 506 379 506 379 518.5 417 c 128,-1,45
 531 455 531 455 568 497 c 1,0,1
EndSplineSet
EndChar

StartChar: asciitilde
Encoding: 126 126 93
Width: 1229
Flags: W
LayerCount: 2
Fore
SplineSet
1001 729 m 0,0,1
 1045 729 1045 729 1075 699 c 128,-1,2
 1105 669 1105 669 1105 627 c 0,3,4
 1105 584 1105 584 1060 531 c 0,5,6
 992 452 992 452 946 419 c 0,7,8
 878 369 878 369 801 369 c 0,9,10
 743 369 743 369 686 398 c 128,-1,11
 629 427 629 427 543.5 508.5 c 128,-1,12
 458 590 458 590 434 590 c 0,13,14
 422 590 422 590 411 582 c 0,15,16
 389 568 389 568 339.5 513 c 128,-1,17
 290 458 290 458 270 446.5 c 128,-1,18
 250 435 250 435 230 435 c 0,19,20
 188 435 188 435 156.5 466 c 128,-1,21
 125 497 125 497 125 538 c 0,22,23
 125 599 125 599 229 697 c 128,-1,24
 333 795 333 795 433 795 c 0,25,26
 488 795 488 795 546 766.5 c 128,-1,27
 604 738 604 738 699 644 c 0,28,29
 748 595 748 595 771 582 c 0,30,31
 786 574 786 574 798 574 c 0,32,33
 812 574 812 574 823 582 c 0,34,35
 848 599 848 599 903 664 c 0,36,37
 938 706 938 706 957.5 717.5 c 128,-1,38
 977 729 977 729 1001 729 c 0,0,1
EndSplineSet
EndChar

StartChar: cent
Encoding: 162 162 94
Width: 1229
Flags: W
LayerCount: 2
Fore
SplineSet
718 205 m 1,0,-1
 718 73 l 2,1,2
 718 -1 718 -1 689.5 -32.5 c 128,-1,3
 661 -64 661 -64 615 -64 c 0,4,5
 570 -64 570 -64 541.5 -32.5 c 128,-1,6
 513 -1 513 -1 513 73 c 2,7,-1
 513 214 l 1,8,9
 356 252 356 252 263 370.5 c 128,-1,10
 170 489 170 489 170 648 c 0,11,12
 170 799 170 799 265.5 918.5 c 128,-1,13
 361 1038 361 1038 513 1075 c 1,14,-1
 513 1266 l 2,15,16
 513 1340 513 1340 541.5 1371.5 c 128,-1,17
 570 1403 570 1403 616 1403 c 0,18,19
 661 1403 661 1403 689.5 1371.5 c 128,-1,20
 718 1340 718 1340 718 1266 c 2,21,-1
 718 1096 l 1,22,23
 811 1081 811 1081 871 1045 c 1,24,25
 897 1053 897 1053 913 1053 c 0,26,27
 961 1053 961 1053 989.5 1022 c 128,-1,28
 1018 991 1018 991 1018 917 c 2,29,-1
 1018 830 l 2,30,31
 1018 756 1018 756 989.5 725 c 128,-1,32
 961 694 961 694 916 694 c 0,33,34
 870 694 870 694 843 722 c 0,35,36
 827 738 827 738 813 799 c 0,37,38
 802 844 802 844 773 863 c 0,39,40
 731 890 731 890 652 890 c 0,41,42
 529 890 529 890 452 818 c 128,-1,43
 375 746 375 746 375 644 c 0,44,45
 375 546 375 546 448 476 c 128,-1,46
 521 406 521 406 633 406 c 0,47,48
 746 406 746 406 853 482 c 0,49,50
 888 507 888 507 923 507 c 0,51,52
 964 507 964 507 995 475.5 c 128,-1,53
 1026 444 1026 444 1026 402 c 0,54,55
 1026 352 1026 352 973 307 c 1,56,57
 883 233 883 233 718 205 c 1,0,-1
EndSplineSet
EndChar

StartChar: copyright
Encoding: 169 169 95
Width: 1229
Flags: W
LayerCount: 2
Fore
SplineSet
678.5 277.9 m 1,0,-1
 678.5 137.9 l 1,1,-1
 718.5 137.9 l 2,2,3
 758.5 137.9 758.5 137.9 775.5 122.4 c 128,-1,4
 792.5 106.9 792.5 106.9 792.5 81.9004 c 0,5,6
 792.5 57.9004 792.5 57.9004 775.5 42.4004 c 128,-1,7
 758.5 26.9004 758.5 26.9004 718.5 26.9004 c 2,8,-1
 549.5 26.9004 l 2,9,10
 509.5 26.9004 509.5 26.9004 492.5 42.4004 c 128,-1,11
 475.5 57.9004 475.5 57.9004 475.5 82.9004 c 0,12,13
 475.5 108.9 475.5 108.9 496.5 125.9 c 0,14,15
 510.5 137.9 510.5 137.9 566.5 137.9 c 1,16,-1
 566.5 572.9 l 1,17,18
 510.5 572.9 510.5 572.9 495.5 585.9 c 0,19,20
 475.5 602.9 475.5 602.9 475.5 628.9 c 0,21,22
 475.5 653.9 475.5 653.9 492.5 669.4 c 128,-1,23
 509.5 684.9 509.5 684.9 549.5 684.9 c 2,24,-1
 801.5 684.9 l 2,25,26
 918.5 684.9 918.5 684.9 983.5 626.4 c 128,-1,27
 1048.5 567.9 1048.5 567.9 1048.5 483.9 c 0,28,29
 1048.5 431.9 1048.5 431.9 1018 389.4 c 128,-1,30
 987.5 346.9 987.5 346.9 926.5 313.9 c 1,31,32
 994.5 255.9 994.5 255.9 1069.5 137.9 c 1,33,34
 1115.5 137.9 1115.5 137.9 1132.5 122.9 c 128,-1,35
 1149.5 107.9 1149.5 107.9 1149.5 81.9004 c 0,36,37
 1149.5 57.9004 1149.5 57.9004 1132.5 42.4004 c 128,-1,38
 1115.5 26.9004 1115.5 26.9004 1075.5 26.9004 c 2,39,-1
 1012.5 26.9004 l 1,40,41
 875.5 236.9 875.5 236.9 788.5 277.9 c 1,42,-1
 678.5 277.9 l 1,0,-1
678.5 388.9 m 1,43,-1
 764.5 388.9 l 2,44,45
 846.5 388.9 846.5 388.9 903.5 429.9 c 0,46,47
 937.5 453.9 937.5 453.9 937.5 487.9 c 0,48,49
 937.5 519.9 937.5 519.9 904 546.4 c 128,-1,50
 870.5 572.9 870.5 572.9 805.5 572.9 c 2,51,-1
 678.5 572.9 l 1,52,-1
 678.5 388.9 l 1,43,-1
553.5 1376.9 m 1,53,54
 563.5 1391.9 563.5 1391.9 575.5 1398.9 c 128,-1,55
 587.5 1405.9 587.5 1405.9 601.5 1405.9 c 0,56,57
 626.5 1405.9 626.5 1405.9 642 1388.9 c 0,58,59
 657.916 1371.45 657.916 1371.45 657.5 1331.9 c 2,60,-1
 656.5 1236.9 l 2,61,62
 656.074 1196.42 656.074 1196.42 641.5 1179.9 c 0,63,64
 626.5 1162.9 626.5 1162.9 601.5 1162.9 c 0,65,66
 579.5 1162.9 579.5 1162.9 566 1175.4 c 128,-1,67
 552.5 1187.9 552.5 1187.9 546.5 1221.4 c 128,-1,68
 540.5 1254.9 540.5 1254.9 506.5 1276.9 c 0,69,70
 455.5 1310.9 455.5 1310.9 388.5 1310.9 c 0,71,72
 302.5 1310.9 302.5 1310.9 246.5 1250.9 c 128,-1,73
 190.5 1190.9 190.5 1190.9 190.5 1102.9 c 2,74,-1
 190.5 1029.9 l 2,75,76
 190.5 949.9 190.5 949.9 249 896.4 c 128,-1,77
 307.5 842.9 307.5 842.9 411.5 842.9 c 0,78,79
 469.277 842.9 469.277 842.9 516.5 859.9 c 0,80,81
 541.5 868.9 541.5 868.9 569 897.4 c 128,-1,82
 596.5 925.9 596.5 925.9 618.5 925.9 c 256,83,84
 640.5 925.9 640.5 925.9 657.5 908.9 c 128,-1,85
 674.5 891.9 674.5 891.9 674.5 868.9 c 0,86,87
 674.5 829.9 674.5 829.9 614.5 787.9 c 1,88,89
 536.5 730.9 536.5 730.9 412.5 730.9 c 0,90,91
 259.5 730.9 259.5 730.9 169.5 817.9 c 128,-1,92
 79.5 904.9 79.5 904.9 79.5 1027.9 c 2,93,-1
 79.5 1102.9 l 2,94,95
 79.5 1239.9 79.5 1239.9 168.5 1330.9 c 128,-1,96
 257.5 1421.9 257.5 1421.9 384.5 1421.9 c 0,97,98
 431.5 1421.9 431.5 1421.9 474 1410.9 c 128,-1,99
 516.5 1399.9 516.5 1399.9 553.5 1376.9 c 1,53,54
EndSplineSet
EndChar

StartChar: onehalf
Encoding: 189 189 96
Width: 1229
Flags: W
LayerCount: 2
Fore
SplineSet
253 1330 m 1,0,-1
 253 755 l 1,1,-1
 364 755 l 2,2,3
 414 755 414 755 435 737.5 c 128,-1,4
 456 720 456 720 456 696 c 256,5,6
 456 672 456 672 435 654.5 c 128,-1,7
 414 637 414 637 364 637 c 2,8,-1
 -2 637 l 2,9,10
 -52 637 -52 637 -73.5 654.5 c 128,-1,11
 -95 672 -95 672 -95 696 c 256,12,13
 -95 720 -95 720 -73.5 737.5 c 128,-1,14
 -52 755 -52 755 -2 755 c 2,15,-1
 108 755 l 1,16,-1
 108 1175 l 1,17,-1
 14 1153 l 2,18,19
 -12 1147 -12 1147 -26 1147 c 0,20,21
 -56 1147 -56 1147 -75.5 1165.5 c 128,-1,22
 -95 1184 -95 1184 -95 1208 c 0,23,24
 -95 1230 -95 1230 -81 1244.5 c 128,-1,25
 -67 1259 -67 1259 -20 1269 c 2,26,-1
 253 1330 l 1,0,-1
1036 801 m 2,27,-1
 330 347 l 2,28,29
 286 318 286 318 264 318 c 0,30,31
 229 318 229 318 204 343 c 128,-1,32
 179 368 179 368 179 402 c 0,33,34
 179 428 179 428 191 445.5 c 128,-1,35
 203 463 203 463 240 486 c 2,36,-1
 947 941 l 2,37,38
 991 969 991 969 1014 969 c 0,39,40
 1048 969 1048 969 1072.5 944 c 128,-1,41
 1097 919 1097 919 1097 885 c 0,42,43
 1097 860 1097 860 1085.5 842.5 c 128,-1,44
 1074 825 1074 825 1036 801 c 2,27,-1
947 118 m 1,45,-1
 1190 118 l 1,46,47
 1210 133 1210 133 1232 133 c 0,48,49
 1266 133 1266 133 1287 112 c 0,50,51
 1303 96 1303 96 1303 57 c 2,52,-1
 1303 0 l 1,53,-1
 727 0 l 1,54,-1
 727 118 l 1,55,56
 1048 343 1048 343 1127 423 c 0,57,58
 1156 452 1156 452 1156 481 c 0,59,60
 1156 517 1156 517 1122.5 544.5 c 128,-1,61
 1089 572 1089 572 1027 572 c 0,62,63
 975 572 975 572 942 552 c 0,64,65
 908 531 908 531 897.5 501.5 c 128,-1,66
 887 472 887 472 873 462 c 1,67,68
 852 449 852 449 824 449 c 0,69,70
 792 449 792 449 771.5 466.5 c 128,-1,71
 751 484 751 484 751 505 c 0,72,73
 751 535 751 535 784 582.5 c 128,-1,74
 817 630 817 630 883 660 c 128,-1,75
 949 690 949 690 1029 690 c 0,76,77
 1153 690 1153 690 1227 626 c 128,-1,78
 1301 562 1301 562 1301 479 c 0,79,80
 1301 424 1301 424 1268 379 c 0,81,82
 1222 318 1222 318 1038 184 c 2,83,-1
 947 118 l 1,45,-1
EndSplineSet
EndChar

StartChar: block
Encoding: 9608 9608 97
Width: 1229
VWidth: 0
LayerCount: 2
Fore
SplineSet
87.5 1440 m 5,0,-1
 1128.5 1440 l 5,1,-1
 1128.5 0 l 5,2,-1
 87.5 0 l 5,3,-1
 87.5 1440 l 5,0,-1
EndSplineSet
EndChar

StartChar: filledbox
Encoding: 9632 9632 98
Width: 1229
VWidth: 0
LayerCount: 2
Fore
SplineSet
100 1077.2 m 5,0,-1
 1126 1077.2 l 5,1,-1
 1126 51.2 l 5,2,-1
 100 51.2 l 5,3,-1
 100 1077.2 l 5,0,-1
EndSplineSet
EndChar

StartChar: H22073
Encoding: 9633 9633 99
Width: 1229
VWidth: 0
Flags: W
LayerCount: 2
Fore
SplineSet
283.694 877.178 m 5,0,-1
 283.694 223.451 l 5,1,-1
 937.42 223.451 l 5,2,-1
 937.42 877.178 l 5,3,-1
 283.694 877.178 l 5,0,-1
100 1077.2 m 1,4,-1
 1126 1077.2 l 1,5,-1
 1126 51.2 l 1,6,-1
 100 51.2 l 1,7,-1
 100 1077.2 l 1,4,-1
EndSplineSet
EndChar

StartChar: notequal
Encoding: 8800 8800 100
Width: 1229
Flags: W
LayerCount: 2
Fore
SplineSet
1037 1270 m 6,0,-1
 380 -146 l 6,1,2
 355 -199 355 -199 335 -215 c 4,3,4
 309 -236 309 -236 272 -236 c 4,5,6
 230 -236 230 -236 199.5 -206 c 132,-1,7
 169 -176 169 -176 169 -138 c 4,8,9
 169 -111 169 -111 193 -59 c 6,10,-1
 852 1356 l 6,11,12
 877 1409 877 1409 896 1425 c 4,13,14
 923 1446 923 1446 959 1446 c 4,15,16
 1001 1446 1001 1446 1031 1416.5 c 132,-1,17
 1061 1387 1061 1387 1061 1349 c 4,18,19
 1061 1322 1061 1322 1037 1270 c 6,0,-1
1054 674 m 2,20,-1
 178 674 l 2,21,22
 104 674 104 674 72.5 702.5 c 128,-1,23
 41 731 41 731 41 777 c 0,24,25
 41 822 41 822 72.5 850.5 c 128,-1,26
 104 879 104 879 178 879 c 2,27,-1
 1054 879 l 2,28,29
 1128 879 1128 879 1159.5 850.5 c 128,-1,30
 1191 822 1191 822 1191 776 c 0,31,32
 1191 731 1191 731 1159.5 702.5 c 128,-1,33
 1128 674 1128 674 1054 674 c 2,20,-1
1054 288 m 2,34,-1
 178 288 l 2,35,36
 104 288 104 288 72.5 316 c 128,-1,37
 41 344 41 344 41 390 c 256,38,39
 41 436 41 436 72.5 464.5 c 128,-1,40
 104 493 104 493 178 493 c 2,41,-1
 1054 493 l 2,42,43
 1128 493 1128 493 1159.5 464.5 c 128,-1,44
 1191 436 1191 436 1191 390 c 256,45,46
 1191 344 1191 344 1159.5 316 c 128,-1,47
 1128 288 1128 288 1054 288 c 2,34,-1
EndSplineSet
EndChar

StartChar: hyphen
Encoding: 45 45 101
Width: 1229
Flags: W
LayerCount: 2
Fore
SplineSet
1050.5 486.7 m 6,0,-1
 174.5 486.7 l 6,1,2
 100.5 486.7 100.5 486.7 69 514.7 c 132,-1,3
 37.5 542.7 37.5 542.7 37.5 588.7 c 260,4,5
 37.5 634.7 37.5 634.7 69 663.2 c 132,-1,6
 100.5 691.7 100.5 691.7 174.5 691.7 c 6,7,-1
 1050.5 691.7 l 6,8,9
 1124.5 691.7 1124.5 691.7 1156 663.2 c 132,-1,10
 1187.5 634.7 1187.5 634.7 1187.5 588.7 c 260,11,12
 1187.5 542.7 1187.5 542.7 1156 514.7 c 132,-1,13
 1124.5 486.7 1124.5 486.7 1050.5 486.7 c 6,0,-1
EndSplineSet
EndChar
